<?xml version="1.0" encoding="utf-8"?>
<!-- Generator: Adobe Illustrator 19.0.0, SVG Export Plug-In . SVG Version: 6.00 Build 0)  -->
<svg version="1.1" id="Layer_1" xmlns="http://www.w3.org/2000/svg" xmlns:xlink="http://www.w3.org/1999/xlink" x="0px" y="0px"
	 width="924px" height="436px" viewBox="0 0 924 436" enable-background="new 0 0 924 436" xml:space="preserve">
<g>
	<path fill-rule="evenodd" clip-rule="evenodd" fill="#FFFFFF" d="M720.7,423.8c-4.8,0-9.9-3.4-10.6-11c-0.4-4.3,0.9-7.7,2.3-10.6
		c0.1-0.2,0.2-0.5,0.3-0.7c-7-1.8-13-6.4-16.6-12.8c-0.6-1.1-1.2-2.3-1.7-3.5c-5.5,6.4-12.4,13.2-22.6,16.3c-3,0.9-6.1,1.4-9.1,1.4
		c-12,0-21.5-7-25.2-17.9c-5.1,6.2-12.2,13-22.6,16.4c-3,1-6,1.5-9.1,1.5c-11.8,0-21.5-7.1-25.5-17.7c-0.8,0.9-1.6,1.8-2.4,2.7
		c-7.4,7.8-14.9,12.4-23.5,14.5c-1.7,0.4-3.5,0.6-5.4,0.6c-8.9,0-18.1-4.9-23.4-12.4c-1.3-1.8-2.3-3.6-3-5.5
		c-5.9,6.4-13.7,12.8-24.3,15.6c-6,1.6-12.1,2.4-18,2.4c-10.2,0-20.2-2.4-29.7-7.1c-4.6-2.2-8-5.6-10.3-9.7c-8.3,8-17,12.8-27,15
		c-4.5,1-8.9,1.5-13.2,1.5c-6.6,0-13-1.2-19-3.6c-1-0.4-2-0.6-2.9-0.6c-1.2,0-2.5,0.3-4.2,0.9c-6.8,2.3-13.5,3.5-19.7,3.5
		c-9.2,0-17.9-2.6-25.8-7.6c-15.2,5.1-30.5,7.6-45.3,7.6c-2.3,0-4.7-0.1-7-0.2c-19-1-34.2-6.5-46.5-16.7c-1.2-1-2.3-2.1-3.4-3.3
		c-1.1,0.7-2.2,1.5-3.3,2.2c-0.8,0.5-1.6,1-2.4,1.6c-11.8,7.8-25.2,12.6-41.1,14.6c-8.8,1.1-16,1.7-22.7,1.7c-1.5,0-3.1,0-4.5-0.1
		c-14.5-0.6-35.9-2.9-54.4-17c-12.4-9.5-20.2-22.4-23.1-38.6c-2-11-0.7-21.3,0.9-30.8c1.2-6.9,2.3-13.9,3.3-20.8
		c0.6-4,1.2-7.9,1.8-11.9c0.3-1.8,0.5-3.5,0.8-5.3c1.7-11.1,3.4-22.5,8.6-33.5c2.9-6,6.4-11.6,10.5-16.7c-2-0.1-4-0.3-6-0.5
		c-10.1-1-23.3-3-35.5-9.8c-23.2-12.9-30.8-36.5-19.5-60.2c4.1-8.5,9.6-15.7,14.4-21.3c-6.9-8.9-10.3-19.8-10.3-33.2
		c-0.1-19.1,5.2-35.9,15.6-50c10.9-14.8,25.9-25,45.7-31.2c11.6-3.6,24.4-5.4,39.1-5.4c4.1,0,8.3,0.1,13,0.4
		c9.1,0.5,18.7,1.2,28.4,3.8c9,2.4,21.9,7.1,30.5,19.4c4.2,6,6.7,12.8,7.6,20.3c3.3,0.5,6.8,1.1,10.4,1.8c6.3,1.2,12.3,4,18.1,8.3
		c6-7.2,14.8-11,26.6-11.4c0.6,0,1.2,0,1.8,0c7.8,0,14.9,1.7,21.8,3.3l1.5,0.4c5.4-3.6,10.8-5.5,16.2-5.5c3.8,0,7.6,0.9,11.2,2.7
		c3.1,1.6,6.5,2.3,10.3,2.3c1.9,0,4-0.2,6.2-0.6c10.1-1.7,20-3.3,30.4-3.3c1.7,0,3.4,0,5.1,0.1c16.6,0.9,30.3,6.3,40.9,16.1
		c12-7.8,24.6-12.8,37.4-15.1c7.1-1.2,13.5-1.8,19.8-1.8c12.6,0,23.8,2.5,34.3,7.5c0.5,0.2,0.8,0.4,1.1,0.5c0.2-0.1,0.4-0.3,0.6-0.5
		c5.4-5.1,11.9-7.9,18.8-7.9c3.8,0,7.6,0.8,11.3,2.4c0.6,0.2,1.1,0.5,1.7,0.7c1.7,0.7,3.1,1.4,4.4,1.7c0.5,0.1,1,0.2,1.5,0.2
		c1.5,0,3.4-0.4,5.3-0.8c1.4-0.3,2.9-0.6,4.5-0.9c6.6-1,12.4-4.5,19.5-9.9c20.1-15.2,44-26.3,70.8-33c15.8-3.9,31.9-5.9,47.9-5.9
		c3.8,0,7.6,0.1,11.4,0.3c30.5,1.8,57.8,9.8,81,23.9c9.2,5.6,19.8,9.8,32.4,12.9c13,3.2,25.3,9.8,37.6,20.4
		c6.2,5.4,10.8,12.2,13.5,20.5c1.6,4.8,1.3,8.9-0.9,12.5c-2.2,3.5-5.8,5.7-10.9,6.6c0,0,0,0-0.1,0c1.7,3.3,3.4,6.8,5,10.2
		c7.7,15.8,12.8,32.7,15.4,50.3c1.9,13.1,2.6,23.8,2.1,33.9c-2.1,47.4-17.5,88.9-45.8,123.4c-21.5,26.2-48,46.4-78.9,60.2
		c-2.5,1.1-4.4,3.4-6.8,6.2c-0.7,0.8-1.4,1.7-2.1,2.5c-8.3,9.4-17.6,18-27.8,25.3C725.6,423,723.2,423.8,720.7,423.8z"/>
	<path fill-rule="evenodd" clip-rule="evenodd" fill="#233D8A" d="M119.3,220.5c-8.5,0-16.2-0.4-23.8-1.1
		c-11.2-1.1-22.3-3.2-32.2-8.8c-18.2-10.1-25.7-28.7-15.9-49.1c3.9-8.1,9.3-15.1,15.2-21.8c2.7-3,2.8-3.1,0.2-6
		c-7.8-8.6-10.5-19.1-10.5-30.4c-0.1-16.4,4-31.5,13.9-44.9c10.5-14.2,24.8-22.9,41.4-28.1c16-5,32.4-5.6,49.1-4.6
		c9,0.5,17.9,1.2,26.6,3.5c10.2,2.7,19.4,7.1,25.8,16.1c4.1,5.9,6.1,12.6,6.3,19.6c0.1,2.7,1.2,3.3,3.4,3.6
		c4.6,0.7,9.1,1.5,13.6,2.4c7.3,1.4,13.4,5.3,18.9,10.2c2.6,2.3,2.9,2.5,4.6-0.6c5-9.3,13.3-12.2,23.1-12.5c8-0.3,15.6,1.8,23.3,3.6
		c2.3,0.5,4,0.1,6.1-1.3c5.8-4,12.2-5.7,18.9-2.3c7,3.5,14.3,3.8,21.8,2.5c11.1-1.9,22.3-3.6,33.6-3c15.1,0.8,28.6,5.6,38.9,17.3
		c1.1,1.2,1.6,1.1,2.8,0.3c11.7-8.3,24.4-14.2,38.5-16.7c16.7-2.9,33.3-2.6,49,4.9c4.5,2.2,7.3,2.2,11.3-1.6
		c5.8-5.5,13.1-7.1,20.9-3.8c2.4,1,4.8,2.2,7.3,2.9c5.1,1.3,9.9-0.6,14.7-1.4c9-1.4,16.2-6.1,23.3-11.5
		c20.3-15.3,43.1-25.4,67.8-31.5c18.6-4.7,37.6-6.5,56.7-5.4c27.4,1.6,53.5,8.3,77.1,22.7c10.9,6.6,22.5,10.9,34.8,13.9
		c12.9,3.2,24,10,34.1,18.6c5.2,4.4,8.8,10.1,10.9,16.7c1.6,4.7-0.2,7.2-5.1,8c-2.9,0.5-5.8,0.3-8.7,0.7c-3.2,0.4-3.2,0.5-1.8,3.3
		c3,6.1,6.1,12.2,9.1,18.3c7.4,15.2,12.2,31.1,14.6,47.8c1.6,10.7,2.5,21.5,2,32.3c-1.9,44.2-15.6,84-43.9,118.4
		c-20.7,25.2-46,44.6-75.8,57.9c-5.4,2.4-8.3,6.9-11.8,10.9c-7.9,9-16.7,17-26.4,24c-2.6,1.9-4.2,1-4.4-2.3
		c-0.2-2.3,0.6-4.3,1.5-6.3c1.5-3.1,2.9-6.2,4.4-9.3c0.7-1.5,0.8-2.3-1.4-2.4c-2.7-0.1-5.4-0.1-8.1-0.8c-10-2.5-16.1-13-13.1-22.8
		c0.8-2.6,1.9-5.1,2.9-7.8c-1.8-0.2-2.8,1-3.9,1.9c-4.9,4.1-8.4,9.6-12.5,14.4c-5.3,6.2-11,11.8-19.1,14.3
		c-12.3,3.8-24.4-3.1-25-17.9c-0.2-4.3,1.2-8.6,3.4-12.7c-2-0.1-3.2,1.1-4.4,2.1c-4.2,3.6-7.2,8.2-10.5,12.5
		c-5.5,7.1-11.7,13.1-20.5,16c-11.6,3.8-24.5-3-25.3-17.8c-0.2-3.6,0.8-7.2,2.5-10.5c0.4-0.8,0.7-1.6,1.3-2.7
		c-3.2,0.6-5.1,2.5-6.9,4.5c-4.3,4.8-7.6,10.4-12.1,15.1c-5.4,5.7-11.5,10.2-19.3,12.1c-11.2,2.7-27-9-22.1-23.2
		c0.6-1.6,1-3.3,1.6-4.9c0.2-0.7,0.6-1.5,0-2c-0.8-0.6-1.6,0.1-2.2,0.5c-3.6,2.7-6.3,6.3-9.1,9.8c-6.6,8.2-14,15.4-24.5,18.2
		c-14.4,3.8-28.4,2.5-41.8-4.1c-5.9-2.9-8.5-7.9-8.6-14.4c0-1.8,0-3.6,0-6.2c-2.7,3-4.9,5.4-7,7.8c-7.4,8.4-16,14.9-27.3,17.4
		c-9.3,2.1-18.4,1.8-27.2-1.7c-4.4-1.7-8.5-1.4-13,0.1c-13.7,4.7-27.1,4.5-39.5-4.1c-1.4-1-2.6-1.1-4.3-0.6
		c-16.5,5.7-33.4,8.5-50.8,7.6c-15.2-0.8-29.5-4.7-41.5-14.7c-2-1.7-3.6-3.6-5-5.7c-1.2-1.8-2.5-2.3-4.5-0.9
		c-3.2,2.3-6.5,4.4-9.7,6.5c-11.4,7.6-24,11.6-37.5,13.3c-8.6,1.1-17.2,1.9-25.8,1.5c-17.9-0.7-35-4.1-49.6-15.2
		c-11-8.4-17.4-19.6-19.8-33.3c-1.7-9.4-0.7-18.6,0.9-27.9c1.9-10.9,3.4-21.8,5.2-32.7c2-12.4,3.2-24.9,8.7-36.5
		c3.5-7.5,8.1-14.2,13.9-20.1C114.1,226.2,116.4,223.6,119.3,220.5z"/>
	<path fill-rule="evenodd" clip-rule="evenodd" fill="#FEFEFE" d="M764,194.8c-3.1-4.2-6.2-8.4-9.4-12.6c-0.5-0.7-0.5-1.5-0.6-2.3
		c-0.1-0.9-0.2-1.4-1.4-1.4c-1.8-0.1-2.3-2.4-4.1-2.8l0,0c-0.2-0.3-0.3-0.7-0.5-1c-0.3-0.4-0.2-1.6-1.2-0.7
		c-5.5-4.9-11.2-9.3-17.4-13.3c-0.4-1-1-2-1.5-2.7c-1-1.4-2.9-2.1-4.7-2.3c-1.1-0.1-2.2,0.2-3.2-0.2c-4.3-1.7-8.6-3.4-12.9-5.1
		c-0.6-0.5-0.5-1.3-0.8-1.9c-0.2-0.6-1-0.6-1.3-0.5c-0.6,0.2,0.4,0.5,0.1,1c-0.2,0.5-0.5,0.7-1,0.5c-0.7-0.2-1.5,0.2-2-0.5
		c-0.5-1.1-1.6-0.1-2.2-0.7c-4.7-0.7-9.4-1.8-14.2-2.3c-11.2-1.1-22.3-0.8-33.3,1.4c-0.2-0.2-0.2-0.6-0.6-0.8
		c-2.7-0.9-3.1-1.5-3.1-4.9c0.1-0.6,0.5-1,0.9-1.3c5.5-3.5,9.5-8.6,13.8-13.3c0.2-0.2,0.4-0.3,0.7-0.4c0.8-0.4,2.4,0.1,2.2-1
		c-0.2-1.3-1.7-0.7-2.7-0.7c-0.5,0-1.1,0.2-1.6,0.1c-1.8-0.2-2.4,0.7-2.2,2.4c0.2,1.5,0.2,2.8-2.1,2.1c-1.5-0.5-2.2,0.4-1.9,1.9
		c0.1,0.7,0.4,1.4,0.2,2.1c-0.3,0.7-0.8,1.2-1.4,1.6c-7.4,5.4-15.3,9.8-23.8,13.1c-0.8,0.3-1.6,0.5-2.4,0.3
		c-2.9,0.6-5.8,1.3-8.7,1.9c-2.6,0.5-5.2,0.5-7.7-0.3c-0.8-0.7-1.8-0.6-2.7-1c-0.4-0.2-0.7-0.4-1.1-0.6c-0.5-0.7-1.1-1.3-1.1-2.1
		c-0.1-1.5,0.8-2.5,1.6-3.6c3.8-4.6,8.7-8,13.2-11.8c3.5-3,6.8-6.1,9.5-9.8c1.5-2.1,3.4-3.3,6.1-3.4c3.7-0.2,7.2-1.3,10.5-3.6
		c-6.5,2.2-12.7,3.2-17.4-3.2c-0.9-1.9-0.9-1.9,1-3.1c-1.5-0.2-3.1,0-3.9-1.7c-0.6-1.4-1.2-2.5-0.8-4.3c0.6-2.8,0.7-5.7-0.8-8.4
		c-0.1-0.2,0-0.4,0.1-0.5c0.9-0.8-0.1-2,0.5-2.8c0.8-5.3,2.8-10.1,5.7-14.6c0.4-0.2,0.9-0.3,1.3-0.4c3.1-0.7,3.2-1.2,1.6-4.1
		c2.2-3.1,4.4-6.2,7.3-8.7c1-0.1,1.6-0.6,1.6-1.7c2.9-3.1,6.2-5.8,9.8-8.2c2.1,0.2,3.2-0.9,3.9-2.7c9.4-6.4,19.8-10.2,30.8-12.4
		c12.8-2.6,25.8-2.7,38.7-0.6c1.4,0.9,3.3,0.5,4.6,1.8c0.9,0.9,1.6-1.1,2.6-0.4l0,0c2.7,1.7,5.8,1.9,8.8,2.3c8.8,2.2,17,5.9,25,10.2
		c1.3,0.7,2.5,1.3,3.8,2c1.1-0.1,1.7,0.5,2.2,1.3c0.4,0.6,0.3,1.4,0.6,2.1c0.3,0.6,0.2,1.8,1.5,1.2c0.6-0.3,1.1,0.4,1.4,1
		c2.4,3.9,2.8,4.1,6.9,3.3c5,3.1,9.4,6.9,12.9,11.7c-0.6,2.6,1.5,2.6,3,3.2c0.6,0.3,1,0.8,1.3,1.4c0.2,1-0.5,1.4-1.2,1.8
		c0.9,0.4,1.6-0.8,2.6-0.4c0.5,0.3,0.7,0.7,0.8,1.2c-0.2,1.6,0.6,2.2,2.1,2.1c1.6,1.3,3.1,2.7,3.5,4.9c-0.1,0.3-0.2,0.7-0.4,1
		c-1.2,3.4-1.1,3.7,2.5,3.8c0.5,0,1.1,0.2,1.5,0.4c0.3,0.2,0.6,0.5,0.7,0.9c0.1,0.3,0.1,0.5,0,0.8c-0.8,2.5-0.8,2.5,2,2.8
		c1.2,0.4,1.6,1.5,2.1,2.4c3,4.8,5.7,9.7,9,14.3c0.3,0.2,0.8,0.6,0.9,0.3c0.4-1.5,0.4-2.9-0.3-4.4c-0.8-1.6-1.9-0.4-2.7-0.7
		c-0.6-0.6-0.7-1.3-0.9-2.1c-0.1-0.8-0.1-1.6,0.1-2.4c0.6-2-0.4-2.7-2.2-2.7c-0.2-0.2-0.3-0.4-0.4-0.6c0.5-2.5-1.9-3-3-4.3
		c-2.2-2.3-3.6-5.2-5.4-7.8c-4.3-5.8-8.6-11.7-13.5-17c-0.9-1-1.8-2-2.3-3.3c0.1-3.1,0.1-3.1-2.8-3.3c-0.2-0.2-0.3-0.4-0.4-0.7
		c-0.3-2.2-0.6-4.5-0.2-6.7c0.1-0.6-0.2-1.8,1.1-1.6c21,2.4,41,7.6,58.5,20.2c-0.2,2.1,2.5,1.1,2.8,2.7c-0.3,0.4-0.4,1-0.6,1
		c0.1,0,0.3-0.6,0.6-1c0.4-0.1,0.7,0,1,0.1c0.3,0.2,0.6,0.4,1,0.7c1.1,2.6,3,4.4,5.7,5.3c0.7,0.6,1.4,1.3,1.6,2.2
		c-1.4,1.4,1.1,1.3,0.9,2.2c0,0.2,0,0.4,0,0.5c-1.4,0.5-0.5,2.2-1.5,2.9c-2,1.5-4.3,1.2-6.5,1.3c-9.2,0.3-15.6,5.4-21,12.2
		c-2.6,3.3-2.6,7-1.2,10.9c2.2,6,5,11.7,6.7,17.8c3.2,11.8,4.1,23.7,3.5,35.9c-0.9,17.7-5,34.6-11.7,51c-0.6,1.5-1.4,2.9-2.1,4.3
		c-1.2,1-1.8,2.3-1.6,3.8c-5,11.4-11.5,22-18.4,32.3c-4.7,7-9.5,13.9-14.9,20.3c-0.8-0.2-2-1.2-1.7,0.9c0.2,1.5-0.8,2.2-1.9,2.8
		c-0.6,0.3-1.2,0.1-1.7-0.2c-0.2-0.1-0.4-0.3-0.5-0.4c-1.3-0.6-3.2-0.7-2.8-3c2-4.5,5.1-8.4,7.7-12.5c3.4-5.5,6.8-10.9,10.3-16.4
		c0.6-0.3,1.2-0.9,2-0.9c0.2,0.2,0.7,0.2,0.5,0.7c0.3-0.5-0.3-0.4-0.4-0.6c-0.3-0.2-0.7-0.3-0.8-0.7c0-1.5,0.5-2.7,1.5-3.7
		c0.6-0.5,1.2-1,1.1-1.9c0-0.7,0.3-1.2,0.9-1.5c1-0.5,1.9,0.6,3,0c-0.9-2.3,0.4-4.6-0.2-7c2.5-6.8,5.5-13.3,7.9-20.1
		c5.7-16.4,8.8-33.1,7.6-50.5c-0.6-9.6-3.3-18.8-7.5-27.5c-1.1-2.4-2.7-4.6-3.2-7.2c0.1-1.8-0.1-3.7,0.3-5.5c0.3-1.3,0.6-3.1-2-3.5
		c-1.2-0.2-0.7-1.6-0.1-2.5c0.1-0.1,0.1-0.1,0.2-0.1c0.4-0.2,0.6,0.1,0.9,0.2c-0.3-0.4-0.7-0.5-1.1-0.1c-1,0.1-1.9-0.3-2.8-0.8
		c-0.4-0.2-0.7-0.6-1.1-0.9c-0.5,0.5-0.2,1.2-0.2,1.8c0.5,8.3-1,16.3-3.8,24c-3,8.5-6.1,16.9-8.3,25.6c-0.5,0.6-0.7,1.4-1.3,2.1
		c-0.2,0.2-0.8-0.4-0.5,0.1c1.3,1.9,0.9,4,0.7,6.1c-0.1,1.2-0.7,2.4-2.2,2.2c-1.7-0.2-4,0.6-4.6-1.8c-0.5-1.8-1.4-2.5-3.2-2.5
		c-0.9,0-1.9-0.4-1.6-1.7c0.5-2.7-0.9-2.7-2.9-2.1c-0.4,0.2-0.9,0.2-1.3,0c-2.1-1.5-3.1-3.8-4-6.1c-3.9-9.2-4.5-18.8-3.3-28.7
		c0.9-8.2,2-16.4,1.1-24.7c-0.8-7.2-3.1-13.8-6.6-20.1c-0.6-1-1.8-2.2-0.9-3.2c1-1.1,2.4,0.1,3.4,0.7c3.6,2,6.9,4.4,10.4,6.5
		c1.1,0.7,2.2,1.7,3.7,1.5c1.5-1.4-0.6-3,0.3-4.6c0.2-0.4-0.9-0.6-1.5-0.7c-1.2-0.2-2.6,0-2-1.6c0,0.9,0.4,2.2-1.3,2.7
		c-1.2-0.1-2-0.9-2.9-1.5c-11.1-6.9-22.9-12-35.9-13.7c-12.5-1.6-24.8-0.4-37,2.9c-1.3,0.4-2.6,0.8-4,1c-2.6-1.2-4.4,0.1-5.9,2
		c-0.6,0.5-1.1,1.1-2,0.8c-0.4-0.9-0.9-1.4-1.5-0.2c-0.5,1-0.5,2.1-1.2,3c-0.1,0.4-0.1,0.7,0.4,0.7c0.8,0,1.6-0.3,2.4-0.4
		c5.7-1.1,6.3-0.6,6.6,5.2c0.3,5.6-0.3,11.1-1.9,16.5c-0.6,1.8-1,3.7-1.5,5.5c-0.5,1.9,0.1,2.2,1.9,1.9c5.3-1,10.5-2.1,15.9-2.6
		c11.8-1.2,23.2,0.4,34.2,4.9c1.3,0.5,2.5,1.1,3.5,2c0.3,0.3,0.5,0.7,0.5,1.2c0.3,1.6,0.7,2.9,2.9,2.4c1.1-0.2,2.3,0.5,3.4,0.6
		c3.3,1.4,6,3.8,9,5.7c2.1,1.3,1.5,3.7,1.3,5.7c-0.6,6.2-0.6,12.3,0,18.5c0.6,5.9,2.9,11.2,5.8,16.3c0.6,1,1.3,2,1.5,3.2
		c-0.1,0.8,0.5,1.9-0.5,2.5c-0.3-0.2-0.7-0.3-0.9-0.7c0,0.4,0.4,0.4,0.6,0.6c0.8,0.6,1.5-0.6,2.3-0.2c2,1.6,4.1,3.1,5.1,5.6
		c0.1,0.6-0.2,1.3,0.5,1.7c1.7,0.9,1,1.7,0,2.4c1.7,0.3,3.4-0.2,5.2-0.7c3.7,0.8,7.3,2.2,11.3,1.5c1.6-0.3,2.4,1,2.7,2.5
		c0.9,3.8,1.3,7.7,1.4,11.6c0.7,24.4-5.5,47.2-15.1,69.4c-1.6,3.7-3.5,7.2-5.2,10.8c-0.4,0.9-0.9,1.8-1.8,2.4
		c-4.1,0.9-5.2,0.2-5.5-3.7c1.3-7.2,2.7-14.4,2.8-21.8c0.2-17-3.4-33.3-10-48.9c-0.3-0.8-0.7-1.7-1-2.5c-0.4-1.2-0.4-2.6-1.7-3.3
		c-0.6-0.6-1-1.3-1-2.2c-0.4-0.7-0.5-1.6-1.1-2.2c-0.2-0.4-0.4-0.7-0.6-1.1c0-0.6-0.2-1.2-0.2-1.8
		C767.4,195.4,767.4,195.4,764,194.8z"/>
	<path fill-rule="evenodd" clip-rule="evenodd" fill="#F8B516" d="M228.8,268.6c-0.9-1.5-1.8-2.8-2.4-4.2
		c-4.1-8.7-11.1-13.7-20.1-16.3c-11.5-3.3-23.1-4.1-34.9-2.4c-12.9,1.9-20.3,9.9-23.8,22.2c-2.6,9.2-3.7,18.7-5.4,28.1
		c-1.6,9-3.9,18-3.9,27.2c0,2.8,0,5.6,0.5,8.4c1.5,8.1,6.1,13.2,14,15.3c7.3,1.9,14.7,2.8,22.1,1.2c12.9-2.7,20-11.1,23-23.5
		c1.6-6.4,1.5-6.3-5-6.4c-5.8-0.1-11.7,0.5-17.5-0.4c-8.8-1.4-12.1-4.9-12.9-13.8c-0.4-3.9,0.2-7.8,0.5-11.7
		c0.1-1.2,0.6-1.7,1.9-1.5c23.5,2,47,1.6,70.5,1.7c2.6,0,3.2,0.8,3,3.2c-1.3,14.6-3.8,28.8-9,42.5c-5,13.2-14.1,22.4-26.8,28
		c-23.4,10.3-47.5,11.9-71.9,4.1c-20.6-6.6-29.6-19.6-28.2-41.1c1.3-20.6,4.6-41,8.7-61.2c4.8-23.4,19.7-37.7,41.9-44.9
		c21.8-7,43.8-7.1,65.7,0.1c5,1.6,9.6,4,13.7,7.3c7.3,5.8,9.5,13.3,6.5,22.1C237,258.7,233.7,263.9,228.8,268.6z"/>
	<path fill-rule="evenodd" clip-rule="evenodd" fill="#FEFEFE" d="M186.3,128.6c4.8,17.5,2.3,33.6-8.9,48.2
		c-1.6,0.8-3.7,1.2-3.4,3.8c-7,7.5-15.8,12.1-25.4,15.3c-15.3,5.1-31,6.3-47.1,4.5c-8.3-0.9-16.5-2.7-24.1-6.1
		c-3.2-1.4-6.1-3.2-8.7-5.6c-5.2-4.7-7.1-10.5-5.2-17.3c1-3.6,2.6-7,4.9-10c1.6,0.6,2.7,0.5,3.4-1.5c0.8-2.4,3.3-3.2,4.9-1.9
		c0.5,1.3,1.1,2.6,1.6,3.8c0,0.2-0.1,0.3-0.1,0.5c-0.6,3.8,0.1,4.5,4,3.8c12,7.1,25.3,8.3,38.9,8c3.4-0.1,6.9-0.5,10.3-1.2
		c7-1.4,12.8-4.5,16.8-10.5c2.6-0.6,2.1-2.7,2.1-4.5c0.2-1.6,0.5-3.3,0.4-4.9c-0.2-5.3-2.7-9.1-7.5-11.4c-6.4-3.2-13.5-4.2-20.4-5.4
		c-10.8-1.9-21.7-3.2-31.9-7.7c-1.4-0.6-2.9-1.1-4-2.2c-1-0.7-1.6-1.8-1.8-2.9c-0.4-2.2-1.7-2.8-3.6-2.8c-1,0-1.9-0.3-2.8-0.8l0,0
		c0-2.8-2.5-4.5-2.8-7.3c-0.1-0.8-2.3-1.5-2.6-3.1c-1.8-5.1-1.6-10.4-1.1-15.6c1.5-13.9,6.7-25.9,17.7-35
		c7.5-6.2,16.4-9.8,25.8-11.6c18.9-3.7,37.9-4,56.9-0.1c4.9,1,9.6,2.7,13.8,5.4c7.3,4.7,10.4,12,8.6,20.5c-0.9,4.4-2.4,8.5-4.8,12.4
		c-0.9,1.3-1.9,0.6-3.1,0.5c-1.8-0.2-3.5,0.1-5-1.1c-2.5-5.1-7.5-7-12.1-9.3c-0.1-1.9,2.4,0.2,2.3-1.5c0-0.2-0.2-0.4-0.3-0.3
		c-0.1,0.2,0.3,0.4,0.1,0.6c-0.8,0.7-2.1,0.7-2.5,0.3c-1.6-1.5-3.4-0.6-5.1-0.8c-6.4-1.1-12.7-2.1-19.2-2.5
		c-7.3-0.5-14.5-0.2-21.7,1.4c-7.1,1.5-11.2,6.2-13.8,12.6c-0.4,2.8-0.8,5.5,0.1,8.4c0.4,1.2,1.6-0.2,1.5,0.9
		c3.9,4,9.1,5.4,14.3,6.5c10.4,2.2,21,2.9,31.3,5.5c7.6,1.9,14.8,4.4,20.8,9.6c1.6,1.4,3.1,2.8,4.2,4.6
		C181.6,124.5,183.4,126.9,186.3,128.6z"/>
	<path fill-rule="evenodd" clip-rule="evenodd" fill="#FEFEFE" d="M294.7,238c-1.4-4.1-0.4-8.2,0.2-12.3c1-6.8,2.5-13.5,3.1-20.4
		c3.3-29.4,8.5-58.6,13-87.8c0.9-5.6,1.1-11.4,3.4-16.7c0.9-4.2,1.8-8.5,2.7-12.7c0.2-1.2,0.6-2.1,2.1-1.4
		c12.7,5.1,25.6,4.2,38.6,1.3c12.3-2.7,24.5-2.7,36.3,2.5c1.6,0.7,3.2,1.4,4.4,2.6c1.3,2.1,3,3.7,5.4,4.5c5.8,6,8.6,13.3,7.9,21.3
		c-1.4,16-3.5,32-7.3,47.6c-4,16.3-15.3,26.2-30.7,31.6c-8.9,3.1-18.1,4.8-27.6,2.2c-3.7-1-7.4-2.5-11-3.9c-1.6-0.6-2.3-0.5-2.3,1.4
		c-0.3,14.8-3.6,29.2-5.9,43.7c-0.3,1.8-0.6,3.6-0.9,5.4c-2.6,2.8-5.7,3.4-9.3,2.8c-7.2-0.5-14-2.1-19.6-7.1c-0.4-1.1,1.1-0.9,1.3-2
		C297.4,239.7,295.6,239.6,294.7,238z"/>
	<path fill-rule="evenodd" clip-rule="evenodd" fill="#F8B516" d="M288.2,375.1c-11-0.3-22.4-1.5-32.9-6.9
		c-9.3-4.8-13.8-12.6-14.2-22.9c-0.4-9.3,1.6-18.3,3-27.4c1.1-7.5,2.3-14.9,3.9-22.3c3.6-16,13.4-26.1,28.7-31
		c18.3-5.9,36.8-6.6,55.4-1.4c9.1,2.6,16.5,7.7,20.3,16.8c2.4,5.7,2.5,11.8,1.8,17.8c-1.8,13.7-3.7,27.4-6.6,40.9
		c-3.9,18.6-16.3,28.7-34.1,33.2C305.4,374,297.1,374.9,288.2,375.1z"/>
	<path fill-rule="evenodd" clip-rule="evenodd" fill="#FEFEFE" d="M506.4,145.1c-0.3,0.4-0.7,0.7-1,1.1c-1.9,0.8-3.7,1.7-6,0.9
		c-1.3-0.4-1.6,0.2-1,1.6c0.5,1.1,0.3,2.1-0.2,3.2c-6.9,4.2-14.5,6-22.4,6.9c-7.7,0.9-15.2,0.5-22.6-2c-1.9-0.6-2.9-0.1-2.7,2.1
		c0.1,2.1,0.1,4.2,0.1,6.3c0.5,1.3-0.3,2.4-0.3,3.7c0.2,3,0.1,3.1,3,2.3c5.9,5.5,13.1,5,20.2,4.4c6.5-0.5,12.8-2.2,18.8-4.8
		c0.3,0,0.6-0.2,0.8-0.1c2.1,1.2,3,0.4,3.2-1.8c0-0.4,0.4-0.8,0.7-1.1c1.5-1.5,3-3,4.5-4.5c2.3-0.4,4.6-0.4,6.9,0.3
		c1.1,0.4,1.4,1,1.6,1.8c0.9,3.3,0.7,6.6-0.4,9.9c-0.8,0.6-0.7,2-2.3,2c-0.9,0-0.6,1.1-0.4,1.8c0.6,1.8-0.1,3.4-1.5,4.3
		c-1.3,0.7,0.4,1.1-0.1,1.5c-1.8,3-4.4,5.1-7.3,6.9c-1.5-0.3-3.2,1.8-4.5-0.4c-0.2,1.2,0.9,1.9,0.7,3.1c-7.5,4.3-15.7,6.2-24.1,6.9
		c-10.1,0.9-20.2,0.4-30-2.5c-0.9-0.5-1.6-1.2-2.7-0.9c-0.2,0-0.4-0.1-0.5-0.1c-1.1-0.9-2.5-1.3-3.9-1.5c-10.3-3.5-17.4-13-18-23.7
		c-0.5-8.5,1.2-16.7,2.3-24.9c1.2-9.6,2.6-19.3,5.4-28.6c2.8-9.1,7.7-16.6,15.8-21.8c1.1-0.4,2.3,0,3.5-0.6c1.4-0.6,1.6-1.4,1.5-2.6
		c7.4-4.3,15.5-6.2,23.8-7c9.6-0.9,19.2-0.8,28.7,1.9c20.3,5.8,25.3,24.7,18.8,40.8c-0.2,0.4-0.1,0.9-0.2,1.3
		c-1.6-0.1-2.2,0.9-2.2,2.4c-0.1,2.5-0.5,4.8-3.6,5.4c-0.7,0.1-1.3,0.9-1.1,1.6C507.8,142,506.8,143.4,506.4,145.1z"/>
	<path fill-rule="evenodd" clip-rule="evenodd" fill="#FEFEFE" d="M195.1,177.8c-1.5-5.4-1.1-10.9-0.3-16.2
		c2.7-17.3,5.8-34.5,8.8-51.7c0.1-0.5,0.3-1.1,0.4-1.6c0.3-0.5,0.5-1.1,0.3-1.7c-0.1-0.2,0-0.4,0.1-0.5c1.2-0.7,1.4-1.2,1.4-2.9
		c0-0.5,0-0.9,0.5-1.1c0.7-0.2,1.1,0.1,1.4,0.6c1-2.2-3.8,0.1-2.2-2.7c-0.1-0.2-0.1-0.3,0.1-0.4c0.9-0.8,0.2-1.9,0.5-2.8
		c0-0.3,0.1-0.7,0.1-1c1.9-1.4,0.2-3.5,0.9-5.1c-0.4-2.7,0.9-3.4,3.4-3.1c3.7,0.4,7.3,0.5,10.9,1.7c0.6,0.7,1.5,0.3,2.2,0.5l0,0
		c0.8,0.7,2.5,0,2.7,1.7c-0.7,0.7-1.4,1.3-2.5,0.8c-0.3-0.2-0.4-0.5-0.2-0.9c-0.3,0-0.5,0.3-0.8,0.3c0.2,0.2,0.6,0.1,0.8,0.4
		c0,0.4,0,0.9-0.7,0.6c0.2,0.5,0.6,0.2,0.8,0.2c1-0.1,1.9-0.3,2.4-1.2c0.7-0.7,1.6,0.2,2.4-0.3c0.2,0,0.4,0.1,0.5,0.2
		c0.9,0.6,0.8,1-0.6,1.5c2.1-1,3.4,1.1,5,0.6c4.8,2.1,5.5,6.1,5.2,10.6c-0.5,7.8-2,15.5-3.4,23.2c-2,11.7-4.3,23.4-5.6,35.2
		c-0.1,1.1-0.1,2.2-0.1,3.3c0.3,6.6,3.3,9.5,9.9,9.8c6,0.2,12-0.5,18-1.1c1.1-0.1,1.5-0.5,1.7-1.7c2.7-17.2,5.4-34.4,8.2-51.7
		c1.7-10.5,3.3-21,5-31.5c0.3-1.6,1-2.2,2.7-2.2c8-0.3,15.5,1.6,22.8,4.5c4.9,1.3,7.3,4.6,7.5,9.7c0.2,6.5-1,12.9-2.1,19.2
		c-3.3,17.7-5.3,35.5-8.3,53.2c-1.2,7.3-2.3,14.6-3.8,21.8c-0.1,0.5-0.2,1.1-0.3,1.6c-1.1,4.7-2.1,5.1-6.6,2.8
		c-9.3-3.3-18.6-3.8-28.4-1.5c-13.3,3-26.8,4-40.1-0.2c-3-1-6-2-8.6-3.9c0.1-1.2-1.3-2.1-0.8-3.5c0.2-0.6-0.8-0.6-1.2-0.6
		c-1.6-0.1-2.2-0.9-2-2.5c0.2-1-0.2-1.6-1.3-1.9c-3.3-0.8-3.4-1-3.7-4.8c0.3-0.4,0.9-0.6,0.5-1.2c-0.1-0.1,0-0.1,0.1,0.2
		c0.1,0.3-0.1,0.7-0.4,0.9c-1.7-0.5-0.7-1.8-0.8-2.8C196.3,180.2,195.9,178.3,195.1,177.8z"/>
	<path fill-rule="evenodd" clip-rule="evenodd" fill="#F8B516" d="M540.8,282.9c5,0,10,0,15,0c1.5,0,2,0.4,2,2
		c-0.2,11.4-11,22.8-22.4,23.7c-4.6,0.4-9.1-0.1-13.7,0.1c-2,0.1-2.7,0.7-3,2.8c-1.6,13.8-3.3,27.6-8.2,40.8
		c-4.8,12.8-13.8,20.7-27.6,22.6c-5.1,0.7-9.9-0.6-14.4-3.2c-2.9-1.7-3.1-2.2-0.9-4.7c4.7-5.4,7.5-11.8,9.6-18.5
		c3.2-10.3,4.4-21,6-31.5c2.8-18,4.8-36,8-53.9c3.6-20.5,15.6-33.3,34.6-40.1c16.2-5.8,32.6-6.2,49-1.4c4.1,1.2,8,3.1,11.1,6.2
		c4.5,4.3,5.5,9.5,3.3,15.2c-2.5,6.5-7.7,10.8-13.1,14.8c-0.7,0.5-1.4,0.7-1.6-0.4c-2.2-9.3-9.7-11.2-17.5-12.7
		c-4.2-0.8-8.5-1-12.8-0.2c-6.3,1.3-10.9,4.7-14.1,10.3c-3.7,6.4-5,13.6-6,20.8c-0.2,1.7-0.3,3.4-0.6,5.1c-0.3,1.7,0.3,2.2,2,2.2
		C530.8,282.9,535.8,282.9,540.8,282.9z"/>
	<path fill-rule="evenodd" clip-rule="evenodd" fill="#F8B516" d="M414.4,256.6c0.4-0.7,0.2-1.4,0.1-2.2c0.7-1.2,0.9-2.6,1.6-3.8
		c8.4-18.9,24.6-26.9,43.6-30.6c12.5-2.4,25-2.4,37.2,1.6c2.1,0.7,4,1.7,5.9,2.8c1.6,0.9,1.5,1.7,0.2,2.8c-3.5,3-7,5.8-9.9,9.3
		c-2,2.5-3.9,5-5,8.1c-0.5,1.3-1.1,1.8-2.6,1.6c-5.1-0.6-10.1-1.3-15.2-1.2c-11.5,0.2-17.7,4.7-21.1,15.6c-2.1,6.8-3,13.8-3.8,20.9
		c-0.2,2.1,1.3,1.4,2.2,1.4c9.1,0.1,18.2,0.1,27.3,0.1c4.8,0,4.7,0,3.8,4.9c-1,5.2-3.5,9.7-6.9,13.8c-3.6,4.3-8.3,6.5-14,7
		c-4.8,0.4-9.6-0.1-14.5,0.1c-1.6,0.1-2.5,0.4-2.7,2.4c-1.6,12.7-3.1,25.4-6.9,37.7c-3.5,11.1-10,19.8-21.1,24.3
		c-7.9,3.2-15.6,2.7-23-1.9c-0.7-0.5-1.7-0.8-1.8-1.8c0.3-1.2,0.6-2.5,1.5-3.5c7.4-8.6,10.1-19.2,11.9-30.1
		c4.3-25.2,7.9-50.5,12-75.8C413.3,258.8,413.5,257.6,414.4,256.6z"/>
	<path fill-rule="evenodd" clip-rule="evenodd" fill="#F8B516" d="M380.5,365.2c-5.8,5.4-12.5,9.1-20.5,9.7
		c-6.3,0.5-12.1-0.8-16.7-5.7c-1.4-1.5-1.6-2.9-0.1-4.4c0.1-0.1,0.1-0.2,0.2-0.2c9.4-8.4,12.2-19.9,14.6-31.6
		c4.2-20.3,7-40.8,10-61.3c2.5-16.6,4.4-33.3,7.6-49.9c0.5-2.7,1.5-3.7,4.4-3.7c7,0.2,13.7,1.6,20.2,3.9c4.6,0.6,8.6,5.3,9,10.6
		c0.2,2.8-0.3,5.6-0.7,8.4c-4.8,28.6-9.4,57.3-13.5,86c-1.3,9-3,18-6.4,26.5c-1.2,2.9-2.6,5.6-4.4,8.1c-0.2,0.4-0.5,0.7-0.8,1
		C382.3,363.5,382,365.1,380.5,365.2z"/>
	<path fill-rule="evenodd" clip-rule="evenodd" fill="#FEFEFE" d="M607.1,93c5.6,4.7,5.6,10.8,4.1,17.2c-0.8,3.7-2.5,7.1-4.8,10.2
		c-0.9,0.9-2,1.2-3.3,0.7c0.6,3.4,0.5,3.6-2.7,3.9c-0.7,0.1-1.3,0.2-1.8,0.6c-1.7,1.5-2.5-0.4-3.4-1.1c-1.1-0.9,0.3-1.2,0.8-1.7
		c0.9-0.9,0.7-2-0.4-1.9c-1.7,0.1-2.5-1.1-3.6-1.9c-5.5-6.4-12.8-7.3-20.4-6.4c-8,0.9-7.8,1.1-9,9.1c-2.1,14-4.5,28-6.7,41.9
		c-1.9,11.6-3.9,23.3-5.7,34.9c-0.2,1.5-0.7,2-2.2,1.9c-6.7-0.6-13.4-1.2-19.8-3.4c-2-0.7-3.9-1.6-5.6-2.7c-2.8-1.8-4.2-4.3-4.2-7.7
		c-0.1-9.3,2-18.2,3.5-27.3c3-18.4,6.5-36.6,9.2-55.1c0.8-5.5,1.5-11,2.2-16.5c0.2-1.3,0.4-1.8,1.8-1.2c1.2,0.6,2.6,0.7,3.9,1.3
		c8.1,3.6,16.4,3.2,24.8,1.4c8.5-1.9,17.2-3.1,26-2.4c3.9,0.3,7.7,0.9,11.3,2.7c0.6,0.5,1.2,0.8,1.9,1.1c2,1,1,1.7-0.1,2.4
		C604,93.2,605.6,92.4,607.1,93z"/>
	<path fill-rule="evenodd" clip-rule="evenodd" fill="#FEFEFE" d="M756.3,371.4c-1.7,3-3.7,5.7-5.9,8.2c-2.7-0.5-2.8-0.4-2.2,2.7
		c-0.2,0.2-0.3,0.4-0.5,0.6c-2.3,0.4-4.6,0.9-5.3,3.7c-0.1,0.5-0.7,0.7-1.2,1c-1.7,0.9-2.2,2.3-1.8,4.1c-0.4,0.3-0.7,0.7-1.1,1
		c-1,0.3-2.3-0.6-3.2,0.7c-0.3,0.4-1.2,0.2-1.4-0.3c-0.5-1.2-2.1-1.7-2.1-3.3c1.8-7.8,3.4-15.7,4.2-23.7c0.5-5.2,0.6-10.5,1.8-15.6
		c1.2-5.3,3.4-10.1,6.3-14.6c0.2-0.2,0.6-0.1,0.7-0.2c1.3-1.6,2.6-2.6,4.9-2.6c1,0-0.1-3.1-2-4.2c-8.5-0.7-12.1-7-15.3-13.7
		c0.8-1.6,0.5-2.7-1.3-3.4c-0.8-0.3-1.5-0.9-1.4-1.8c0.1-0.9,0.9-1,1.5-1.2c-1.3-0.2-2.9,0.4-4.1-0.7l0,0c0.9-2.7-1.6-2.4-2.9-3.2
		c-2-1.7-3.9-3.4-5.9-5.1c-0.9-1.6-1.9-3.1,2.3-3.1c-3.3-1.3-5.4,1.4-7.4-0.6c-0.7-0.5-1.5-1-2.2-1.5c-0.4-0.6-0.2-1.4-0.5-2.1
		c-1.1-2.6-0.7-3.2,2.1-3.2c0.7,0,1.4,0.3,2.1-0.3c-0.4-0.3-0.3-0.3-1.1,0.1c-0.6,0.3-1.3,0.3-1.8,0c-0.6-0.4-0.6-1-0.1-1.6
		c14.8-4.7,29.3-5,43.3,2.7c0.5,0.3,1,0.7,1.6,1.1c-0.1,1.6,0.4,2.8,2.3,3c1.1,0.1,1.5,0.9,1.9,1.9c0.3,0.7,1-1.4,1.9-0.4
		c0.2,0.2,0.6,0.3,0.6,0.5c0.2,2.8,2.6,2.4,4.3,3c1.8,0.7,2.6,3,4.9,2.8c0.9-0.3,1.3,0.6,2,0.7c0.9,0.1,1.9,0.1,2-0.9
		c0-1.8,2.2-3.4,0.3-5.3c-0.4-0.4-0.1-1,0.3-1.4c0.5-0.5,1-0.2,1.5,0.1c1.2,0.8,2.2,2,3,3.1c1,1.4,2.2,2,3.7,2.1
		c-0.8,1.3-1.6,2.5-2.4,3.8c-0.6,0.5-1.4,0.6-2,0.5c-2.8-0.4-2.7,1.4-2.5,3.3c0.1,1.3,1,2.6,0.2,3.9c-6.7,12.8-8.6,27-12.5,40.6
		c-0.8,2.6-2.5,4.8-3,7.5c-2.4,0.9-1.6,3.4-2.6,5c-0.2,0.5-0.5,1-0.7,1.5c-2.6-0.9-1.9,1.8-2.9,2.7
		C755.9,369.6,756.6,370.7,756.3,371.4z"/>
	<path fill-rule="evenodd" clip-rule="evenodd" fill="#FEFEFE" d="M702.1,221.1c-3.3-1.6-6.2-3.9-8.7-6.6c-0.2-0.8-0.7-1.4-1.6-1.7
		l0,0c-0.4-1.7-1.6-2.7-2.9-3.7c-4.5-6-5.7-12.8-5.1-20c0.2-3.2,0.7-6.5,2-9.5c0.9-0.8,1.4,0.4,2.3,0.4c-0.6-1.3-2-2.5-0.3-3.9
		c0,0-0.5-0.1-0.6-0.4c1.9-4.6,3.9-9.2,5.8-13.7c0.7-1.7,1.6-3.3,1.9-5.1c0.4-2.9,1.7-3.6,4.5-3c8.4,1.7,16.5,4.1,24,8.3
		c6.4,3.6,9.6,11.6,7.6,18.6c-0.3,1.1-1.2,1.6-2,2.2c-4.3,3.5-8.9,6.6-13.1,10.2c-8.4,7.2-10.4,15.9-6.7,26.1
		c0.4,1.1,0.4,2.4,1.1,3.5c0.1,1.2-0.3,1.9-1.6,1.6l0,0C707.1,222,704.5,221.6,702.1,221.1z"/>
	<path fill-rule="evenodd" clip-rule="evenodd" fill="#233D8B" d="M380.5,365.2c0.7-0.9,1.5-1.8,2.2-2.6c0.4,0,0.8,0,0.4-0.6
		c7.1-10.6,9.3-22.8,11-35.1c2.7-18.7,5.6-37.4,8.6-56.1c1.8-11.1,3.5-22.3,5.5-33.4c1.3-7.5-0.8-11.2-8.1-15.4
		c1.4-1.3,2.9-1.8,4.4-0.2c0.8,0.8,1.8,0.8,2.8,0.7c2.6,0,3.9,1.4,4.3,3.9c0.1,0.5,0.1,1.3,0.4,1.5c4.4,2.3,2.8,6.6,2,9.3
		c-1.4,5.2-2.3,10.3-2.6,15.8c-0.2,3,0.5,3.5,2.9,3.4c-2.8,18.2-5.7,36.4-8.5,54.7c-1.7,11-3.3,22.1-5.6,33
		c-1.6,7.5-4.3,14.4-9.2,20.4c-1.2,1.5-2.2,3.1-3.3,4.6c0-1.5,0-3.1,0-4.6c-2.9-0.1-3-0.2-3.9,2.6c-0.4,1.1-1.1,1.1-1.9,1.1
		c-1,0.1-1.2-0.8-1.3-1.4C380.7,366.4,380.8,365.8,380.5,365.2z"/>
	<path fill-rule="evenodd" clip-rule="evenodd" fill="#233D8B" d="M284.3,200.3c5,1.2,5,1.1,6-4.2c3.7-19.7,6.5-39.5,9.4-59.3
		c1.3-9.3,3.4-18.5,4.6-27.9c0.4-3.2,0.4-6.3,0.3-9.5c-0.1-1.5-0.9-2.7-1.9-3.8c-1.4-1.5-3.2-2.3-4.8-3.6c3.7-1.6,7.2,0.1,10.3,1.5
		c1.9,0.8,2.3,3.8,2.9,5.9c0.7,2.7,1.1,3,3.4,1.3c-1.2,7.6-2.4,15.2-3.6,22.8c-2.1,13.6-4.2,27.3-6.3,40.9
		c-2.1,13.4-4.1,26.7-6.2,40.1c0,0.3-0.2,0.5-0.4,0.7c0-1.6-0.1-3.2,0.3-4.8c0.5-1.8-0.5-3-2.2-2c-1.8,1-4.7-0.4-5.5,2.3
		c-0.7,2.3-2.1,2.1-3.5,1.3c-1-0.6-2.1-0.2-3.1-0.7C283,200.8,284.4,200.7,284.3,200.3z"/>
	<path fill-rule="evenodd" clip-rule="evenodd" fill="#263D8C" d="M803.9,80.5c-0.2-0.4-0.5-0.7-0.7-1.1c-0.6-0.4-1.1-0.9-1.5-1.5
		c-0.4-0.4-0.8-0.8-1.2-1.2c-1.5-0.8-2.6-1.8-3.1-3.5c-3.8-4.2-8.1-7.9-12.6-11.3c-4-2.1-7.5-4.8-10.9-7.8c-0.6-0.5-1.1-0.9-1.7-1.4
		c0.2-0.7,0.3-1.4,0.6-2c0.2-0.4,0.6-0.7,1.1-0.5c0.4,0.2,1,0.5,0.8,0.9c-1.2,1.9-0.1,2,1.3,1.7c1.3-0.3,1.6,1,2.2,1.5
		c1.9,1.4,3.8-0.6,5.6,0.5c2.3,2.4,4.9,4.5,7.5,6.5c1.3,1.1,2.7,2.1,3.3,3.8l0,0c1.6,0.7,2.7,1.7,3.3,3.4c7.7,8.8,14.9,18,21.2,27.8
		c1.2,1.5,2.5,2.9,2.8,4.9l0,0c1.5,1.6,2.3,3.5,2.7,5.5c0.3,0.7,0.5,1.4,0.8,2.1c1.6,1.5,2.6,3.2,1.5,5.5c-3.5-4.7-6.1-9.9-9.3-14.8
		c-0.5-0.7-1-1.5-1.5-2.2c-1.6-0.7-1.8-2.3-2.3-3.7c-0.1-0.2-0.3-0.4-0.4-0.6c-1.7-1.5-3.1-3.3-3.7-5.5c-1-1.8-2.2-3.4-3.6-4.8
		C804.9,82.2,804.2,81.5,803.9,80.5z"/>
	<path fill-rule="evenodd" clip-rule="evenodd" fill="#FCFCFC" d="M785,300.4c-1.6,1.1-2.7,0.3-3.7-1c-1-1.3-2.1-2.4-3.3-3.5
		c-0.3-0.3-0.5-0.9-1-0.4c-0.5,0.4-0.3,0.8,0.2,1.1c1.7,0.9,1.7,1.9,0.2,3c-0.2,0.2-0.1,0.7-0.2,1c-0.3,1,0.3,2.6-1.2,3
		c-1.5,0.5-2.7-0.5-3.7-1.5c4.1-5.8,6-12.6,8.1-19.2c0.7,2.7,2.4,4,5.3,3.4c0.8,2-1.1,3.1-1.6,4.8c1.1-2,2.3-3.8,3.5-5.7
		c0.5-0.8,0.7-2,2.1-1.7c0.3,0.8,0.3,2,1.7,1.6c0.7-0.2,1.5,0,0.9,1.1c-0.3,0-0.5,0-0.6,0c0.1,0.1,0.3,0.1,0.5,0.1
		c0.4,0.1,0.1-0.5,0.2-0.2c0,0.1-0.1,0.2-0.1,0.1c0.7,0.1,1.2,0.3,1.8,0.5c0.6-0.1,0.8,0.1,0.6,0.6C791.4,291.7,788.2,296,785,300.4
		z"/>
	<path fill-rule="evenodd" clip-rule="evenodd" fill="#283E8C" d="M628.3,148.8c8.7-3.5,17-7.7,24.6-13.1c1-0.7,1.8-1.4,2.8-2.2
		c1.8-2.5,4.5-4,6.8-6c0.4-0.3,1-0.5,1.4,0.1c-4.4,5.3-9,10.3-14.7,14.2c-0.8,1.6-2.5,2.1-3.9,2.9c-4.5,2.3-9,4.7-13.7,6.8
		c-0.6,0.1-1.2,0.6-1.9,0.2C627.6,151.4,629,149.6,628.3,148.8z"/>
	<path fill-rule="evenodd" clip-rule="evenodd" fill="#FBFAFB" d="M631.1,151.1c6-3.1,12-6.2,18-9.3c0.4,2,0.1,4.4,3.2,4.5
		c0.5,0,0.1,0.7,0.1,1.1c-6.7,1.6-13.3,3.5-20.2,4.3C631.7,151.8,631,152.1,631.1,151.1z"/>
	<path fill-rule="evenodd" clip-rule="evenodd" fill="#FAF9FA" d="M592.1,118.8c1.6,0.6,3.7,0.6,4.9,1.5c1.5,1.2,0.4,2.9-1.5,3.5
		c0.5,0.6,1.5,0.2,1.7,1.1c0.1,0.4,0.4,1.1,0.7,0.4c0.8-1.9,2.3-1.1,3.5-1c1.6,0.1,2-0.7,1.4-1.7c-1.2-2.2-0.5-2.5,1.5-1.9
		c0.8,0.2,1.4-0.4,2.1-0.3c-2.7,4.6-6.1,8.7-11.3,11.8C595.3,127.2,594.5,122.8,592.1,118.8z"/>
	<path fill-rule="evenodd" clip-rule="evenodd" fill="#FAFAFB" d="M198.5,181.1c-0.2,0.9,1.1,1.1,0.6,2.4c-0.3,0.9,0.8,2.2,2.4,2
		c1.6-0.1,2.8,0.5,2.4,2.5c-0.3,1.4,0,2,1.5,1.9c1.4-0.1,2.2,0.5,1.5,2c-0.4,1,2,1.7,0.3,2.8c-6.8-3.7-11.1-9.1-12.1-16.9
		c1.8,0.8,1.8,0.8,3-0.8C198.3,178.5,197.3,179.9,198.5,181.1L198.5,181.1z"/>
	<path fill-rule="evenodd" clip-rule="evenodd" fill="#FAFAFB" d="M794.5,65.2c-3-2.6-6.1-5.1-9.1-7.7c-0.8-0.7-1.7-1.4-1.7-2.6
		c3.8,0.6,7.7,0.5,11.4,1.5c-0.8,2-0.8,4.2-0.4,6.3C795,63.6,795,64.4,794.5,65.2z"/>
	<path fill-rule="evenodd" clip-rule="evenodd" fill="#F9F9FA" d="M731.6,389.9c0.1,1.2,1.8,0.7,1.9,2c0,0.6,0.4,1.6,1.4,1.3
		c1-0.3-0.3-1.4,0.6-1.9c0.9,0.5,1.8,1,2.8,1.5c-2.8,3.2-6.2,5.7-9.6,8.2C729.3,397.1,730.2,393.4,731.6,389.9z"/>
	<path fill-rule="evenodd" clip-rule="evenodd" fill="#F9F8FA" d="M182.1,84.9c2.2,0.9,4.8-0.8,6.7,1.2c0.4-0.4,0.5-1.2,1.4-0.6
		c-1.4,3.6-4,6.3-6.4,9.8C183.5,91.4,183.2,88.1,182.1,84.9z"/>
	<path fill-rule="evenodd" clip-rule="evenodd" fill="#F9F9FA" d="M510.1,165.2c-1.6-2-3.9-1.7-6-1.8c-0.9,0-1.7,0.2-2.5-0.3
		c1.3-2.3,2.7-4.7,4.1-7.1C508.3,158.5,509.6,161.7,510.1,165.2z"/>
	<path fill-rule="evenodd" clip-rule="evenodd" fill="#F9F9FA" d="M626,93.6c2.8,1.8,1.3,4.6,1.8,6.9c0.3,1.6-1.2,2.7-0.4,4.5
		c1.1,2.4,3.1,2.3,5.3,2.8c-0.8,1.2-3,1.5-2.2,3.5c-3.4-2.8-5-6.5-4.9-10.9C625.6,98,625.2,95.7,626,93.6z"/>
	<path fill-rule="evenodd" clip-rule="evenodd" fill="#F9F8FA" d="M506.4,145.1c-0.6-2,1-3.7,0.5-5.8c-0.2-0.7,0.8-1.5,1.6-1.6
		c2.9-0.3,3.1-2.2,3-4.5c0-1-0.1-2.4,1.2-3.1c1-0.6,1.2,0.3,1.8,0.7C512.8,136.1,510.1,140.9,506.4,145.1z"/>
	<path fill-rule="evenodd" clip-rule="evenodd" fill="#F8F8FA" d="M76.7,158.1c-2-0.8-3,0.7-4.3,1.7c-0.8,0.6,0.9,3.8-2.2,2.1
		c-0.2-0.1,0.1,1.2-0.8,1.5c-0.1-0.7-0.1-1.6-1-1.9c1.8-3.2,4.2-6,6.5-9.3C76.1,154.2,76.4,156.1,76.7,158.1z"/>
	<path fill-rule="evenodd" clip-rule="evenodd" fill="#FAF9FA" d="M711.5,287.3c0,0.8,0,1.6,1.1,1.5c1.7-0.1-0.7-0.8,0.1-1
		c1-0.1,2-0.2,2.9-0.1c0.4,0.1,0.3,0.8,0.1,1.2c-0.5,1-1.4,1.1-2.3,0.8c-0.8-0.4-1.5-0.2-2.4,0.1c-1.2,0.3-1.2,1.3-0.5,1.7
		c1.7,1,0.6,2,0.3,3c-1.8-1-3.4-2.3-4.9-3.7c-0.9-0.8-1.6-1.6,0.4-2C708.1,288.4,709.7,287.8,711.5,287.3z"/>
	<path fill-rule="evenodd" clip-rule="evenodd" fill="#F7F6F9" d="M767.3,299.2c-3.4,1.4-4.4-1.3-5.5-3.7c-0.8,0.9,0.9,2.3-0.8,2.4
		c-1,0.1-1.5-0.8-1.3-2c0.3-1.7-1.3-1.5-1.9-1.3c-1.6,0.5-1.5-1-2.1-1.6c-1-0.9,0.3-1.3,0.7-1.9C760.5,293,764,296,767.3,299.2z"/>
	<path fill-rule="evenodd" clip-rule="evenodd" fill="#F9F8FA" d="M739.4,391.7c-1.3-1.2-0.3-1.2-0.3-2.7c0-2.5,1.8-1.6,2.6-2.4
		c0.9-0.9,0.6-2.4,2.1-3.2c1.3-0.7,2.4-1.3,3.8-0.5C745.3,386.3,742.4,389.1,739.4,391.7z"/>
	<path fill-rule="evenodd" clip-rule="evenodd" fill="#F8F8FA" d="M747.4,328.8c1.7-0.4,3.5,1.2,3.1,3.1c-0.2,1.2-0.4,2.8-2.5,2.1
		c-1.2-0.4-1.9-0.2-1.9,1.5c-0.1,1.5-1.4,0.9-2.3,0.4C744.7,333.4,747.1,331.7,747.4,328.8z"/>
	<path fill-rule="evenodd" clip-rule="evenodd" fill="#F9F9FA" d="M498.2,151.8c-1-0.8,0.9-2.7-1.1-3.2c0.5-0.9-0.3-2.9,1.8-2.3
		c2.3,0.7,4.4-0.4,6.5-0.2C503.5,148.6,501.1,150.5,498.2,151.8z"/>
	<path fill-rule="evenodd" clip-rule="evenodd" fill="#F8F8F9" d="M778.2,311.8c-0.3-2.1-1-4.1-0.9-6.3c0-1.7,0.6-1.8,1.9-1.5
		c1.1,0.3,2.3-0.5,3.4,0.2C781.1,306.7,779.6,309.3,778.2,311.8z"/>
	<path fill-rule="evenodd" clip-rule="evenodd" fill="#F7F7F9" d="M78.7,119.9c1.2,0.1,2.3,0.1,3.5,0.2c1.9,0.1,3.4,0.5,3.5,3
		c0,1.1,0.8,2.3,1.2,3.4C83.6,124.9,80.9,122.7,78.7,119.9z"/>
	<path fill-rule="evenodd" clip-rule="evenodd" fill="#F8F7FA" d="M720,155.5c2.1-0.3,4.3-1.7,6,0.9c4.1-0.9,2.5,2.8,3.5,4.4
		C726.4,159,723.2,157.2,720,155.5z"/>
	<path fill-rule="evenodd" clip-rule="evenodd" fill="#F6F5F8" d="M73.2,109.5c1,0.5,0.8,3.1,2.9,1.5c0.3-0.3,0.6,0.4,0.6,0.9
		c-0.1,1.8-0.1,3.4,1.9,4.5c1.3,0.8-0.3,2.3,0.1,3.5C75.9,116.9,74,113.5,73.2,109.5z"/>
	<path fill-rule="evenodd" clip-rule="evenodd" fill="#F8F8F9" d="M505.4,184.6c-0.4-1-1.4,0.2-1.9-0.5c1.6-1.6,4.3-2.6,2.5-5.8
		c-0.3-0.5-0.1-2.4,1.7-1.9c1.1,0.3,0.8-1.7,2-1.3C509.3,178.8,507.7,181.8,505.4,184.6z"/>
	<path fill-rule="evenodd" clip-rule="evenodd" fill="#F6F5F8" d="M726.8,308c1.7,0.1,3.3,0.2,5.1,0.3c-0.3,1.1-1.5,0.9-2,1.7
		c0.3,0.7,0.8,1.7,1.6,1.4c1.4-0.5,0.9,1,1.6,1.2c-0.4,0.8,0.9,2.3-0.9,2.6C730.3,312.7,728.6,310.4,726.8,308z"/>
	<path fill-rule="evenodd" clip-rule="evenodd" fill="#F6F6F9" d="M186.3,128.6c-2.2-0.3-4.1-1-4-3.7c0-0.9-0.5-1.2-1.1-1.6
		c-0.2-0.2-0.9-0.1-0.7-0.5c0.4-0.7,1.1-1.2,1.6-1.8C184.1,123.2,185.3,125.8,186.3,128.6z"/>
	<path fill-rule="evenodd" clip-rule="evenodd" fill="#F7F6F8" d="M764,194.8c3.2-1,4-0.4,4.2,2.8c0.1,1.2-0.2,2.2-0.5,3.3
		C766.5,198.8,765.2,196.8,764,194.8z"/>
	<path fill-rule="evenodd" clip-rule="evenodd" fill="#F8F8FA" d="M453.4,171c-0.5,2.3-2.5,0.3-3.4,1.4c-0.4-2.7-0.7-5.1,0.7-7.3
		C451.4,167.2,452.2,169.2,453.4,171z"/>
	<path fill-rule="evenodd" clip-rule="evenodd" fill="#F8F7F9" d="M82.2,166.2c-1.4,1.1-2.9,2.1-4.2,0.2c-1-1.4-1.6-3.1,0.2-4.5
		C79.6,163.4,80.9,164.8,82.2,166.2z"/>
	<path fill-rule="evenodd" clip-rule="evenodd" fill="#F6F6F8" d="M713,296c1.8,1.1,3.3-1,5-0.6c0.6,0.1,1.4-1,1.8,0.1
		c0.2,0.5,0.4,1.2-0.1,1.8c-0.7,0.8-1.3,0.7-2,0c-0.2,1.1,1.1,1.6,0.3,2.5C716.4,298.4,714.7,297.2,713,296z"/>
	<path fill-rule="evenodd" clip-rule="evenodd" fill="#F9F9FA" d="M205.5,100.1c0.6,3.1,1.2-1,2.1,0.5c0.1,0.7,0.9,1.9,0.6,3.5
		c-0.7-0.3-0.6-1.5-1.6-1.4c0,0.2-0.2,0.5-0.1,0.6c1.3,1,0.1,2.2,0.2,3.2c-0.7,0.1-1.3-1.1-2.2-0.3
		C204.5,104.1,204.9,102.1,205.5,100.1z"/>
	<path fill-rule="evenodd" clip-rule="evenodd" fill="#F8F8F9" d="M635.2,71.1c2.9,0.1,1.3,2.3,1.5,3.5c0.3,2-0.9,0.6-1.6,0.8
		c-1,0.3-1.8,0.7-2.8,0.2C633,74,634,72.4,635.2,71.1z"/>
	<path fill-rule="evenodd" clip-rule="evenodd" fill="#F7F7F9" d="M317,249.5c1.9-0.2,3.9,0,5.6-0.7c1.2-0.5,1.9-2.3,3.7-2.1
		c0.4,2.7-0.8,3.7-3.5,3.3C321,249.8,318.9,250.3,317,249.5z"/>
	<path fill-rule="evenodd" clip-rule="evenodd" fill="#F7F6F8" d="M443.5,93.7c1.7,2.6,1.7,2.7-2.2,3.6c-0.8,0.2-2.3,0-2.8-0.5
		C439.9,95.4,441.7,94.5,443.5,93.7z"/>
	<path fill-rule="evenodd" clip-rule="evenodd" fill="#F8F8F9" d="M748.6,175.7c1.2-0.8,1.4,0.4,2.1,0.9c0.9,0.7,1.6,2,3.1,1.1
		c0.7-0.4,1.5,0.3,1.2,0.8c-1,1.3,0.4,2.6-0.3,3.7C752.6,180,750.6,177.9,748.6,175.7z"/>
	<path fill-rule="evenodd" clip-rule="evenodd" fill="#F6F5F9" d="M864.2,85.3c-0.2,0.1-0.3,0.2-0.5,0.3c-0.7,0.3-4-1.7-4.1-2.5
		c-0.2-1.1-1.9-1.7-1.1-3.1C860.7,81.5,862.7,83.1,864.2,85.3z"/>
	<path fill-rule="evenodd" clip-rule="evenodd" fill="#F7F6F9" d="M164.6,73.9c1-1.2,2.7-0.2,3.9-1.2c0.3-0.3,0.5,0.3,0.7,0.6
		c0.8,1.1,0.8,1.1,2,0.3c0.3-0.2,0.9-0.1,1.3,0c0.3,0.1,0.6,0.5,0.6,0.8c0.1,0.6-0.4,0.7-0.8,0.9c-0.7,0.2-1.6-0.6-2.2,0.4
		C168.1,75.2,166.3,74.7,164.6,73.9z"/>
	<path fill-rule="evenodd" clip-rule="evenodd" fill="#F5F5F8" d="M111.5,94.7c-2.3-0.3,0.5,1.2-0.9,1.3c-1.1-0.6-0.7-2.8-2.6-3.3
		c-0.7-0.2,1.5-0.5,1.1-1.9c-0.4-1.4,0.6-2.9-0.1-4.5c-0.3-0.7,0.3-0.9,0.9-1C109.5,88.7,109.9,91.8,111.5,94.7z"/>
	<path fill-rule="evenodd" clip-rule="evenodd" fill="#F6F5F8" d="M494.3,194.1c-1.1-0.8-1.3-2-1.4-3.3c-0.1-0.8,0.4-0.6,0.8-0.7
		c0.3,0,0.8-0.6,0.8,0.4c0,1.2,1.1,1.3,1.6,0.5c1.3-2.1,1.3,0.3,2,0.4C497.2,192.9,495.6,193.3,494.3,194.1z"/>
	<path fill-rule="evenodd" clip-rule="evenodd" fill="#F6F6F8" d="M756.3,371.4c-1.3-1.6-1.1-2.9,0.8-3.8c0.1-0.1,0.2-0.3,0.2-0.4
		c0.3-0.7-1.6-1.3-0.1-2c1.1-0.5,1.4,0.9,2.2,1.2C758.6,368.2,757.6,370,756.3,371.4z"/>
	<path fill-rule="evenodd" clip-rule="evenodd" fill="#F7F6F8" d="M294.7,238c1.1,0.5,2.1,1.2,3.2,1.4c1,0.2,1.9,0.5,1.9,1.4
		c0.1,1.1-1.1,0.9-1.9,1.1c-0.2,0.1-0.4,0.3-0.6,0.5C295.9,241.3,295,239.9,294.7,238z"/>
	<path fill-rule="evenodd" clip-rule="evenodd" fill="#F5F5F8" d="M607.1,93c-1.4,0.4-2.7,0.6-4.2,0.4c-0.9-0.2-1.1-0.8-1-1.3
		c0.3-1.2,0.6,0.2,1,0c0.2-0.1,0.5-0.3,0.6-0.5c0.2-0.4-0.1-0.6-0.4-0.8c-0.7-0.5-1.7-0.6-2.1-1.6C603.4,89.9,605.4,91.1,607.1,93z"
		/>
	<path fill-rule="evenodd" clip-rule="evenodd" fill="#F6F6F8" d="M497.1,167.6c0,0.2-0.1,0.4-0.1,0.5c-0.8,4.5-0.8,4.5-4.5,2.5
		C494,169.6,495.5,168.6,497.1,167.6z"/>
	<path fill-rule="evenodd" clip-rule="evenodd" fill="#F7F6F9" d="M687.2,175.6c0.7,0.1,1.5-0.1,2,0.6c-1.1,0.3-2.3,0.5-1.3,2.2
		c0.4,0.7,2,1.2,0.7,2.3c-1.2,1-1.6-0.6-2.3-1.1c-0.2-0.1-0.3-0.1-0.5-0.1C686.1,178.1,686.5,176.8,687.2,175.6z"/>
	<path fill-rule="evenodd" clip-rule="evenodd" fill="#F6F6F8" d="M702.1,221.1c3.8-0.7,5.8,0.2,6.7,3.2
		C706.3,223.7,704.1,222.6,702.1,221.1z"/>
	<path fill-rule="evenodd" clip-rule="evenodd" fill="#F8F8FA" d="M743.3,40.5c-3.3,0.5-6.4,0.4-8.8-2.3
		C737.5,38.7,740.5,39.3,743.3,40.5z"/>
	<path fill-rule="evenodd" clip-rule="evenodd" fill="#F3F2F6" d="M794.6,287.3c-0.2-0.2-0.4-0.4-0.6-0.6c0.4-1.1,3.2-1.5,0.9-3.4
		c-0.4-0.3,0.4-1.1,0.8-1.2c0.9-0.2,2-0.6,2.2,0.9C797.1,284.6,795.9,286,794.6,287.3z"/>
	<path fill-rule="evenodd" clip-rule="evenodd" fill="#F3F2F6" d="M404.1,97.4c-2.8,0-4.7-1.5-5.4-4.5
		C400.8,94,402.7,95.5,404.1,97.4z"/>
	<path fill-rule="evenodd" clip-rule="evenodd" fill="#F8F8FA" d="M734.5,38.3c-1.4,1.8-2.7,2.2-4.2-0.1c-0.6-0.9-2.4,0-3-1.4
		C729.8,37.1,732.2,37.4,734.5,38.3z"/>
	<path fill-rule="evenodd" clip-rule="evenodd" fill="#F5F4F7" d="M748.1,382.4c-0.1-1.1-2.5-1.5-1-3c1-1,2.2-0.8,3.2,0.3
		C749.8,380.7,749.2,381.7,748.1,382.4z"/>
	<path fill-rule="evenodd" clip-rule="evenodd" fill="#F7F6F9" d="M704.1,149.5c1.4-1.6-0.7-0.9-1-1.6c1.2-0.3,2.4-0.6,4-0.9
		c0,1.2,0,2.3,0,3.4C706.1,150.1,705.1,149.8,704.1,149.5z"/>
	<path fill-rule="evenodd" clip-rule="evenodd" fill="#F3F2F6" d="M174,180.6c-0.9-3.1-0.7-3.3,3.4-3.8
		C176.5,178.3,175.3,179.6,174,180.6z"/>
	<path fill-rule="evenodd" clip-rule="evenodd" fill="#F4F4F7" d="M657.9,49.9c0.6,1.5-0.1,2.6-1.3,2.9c-0.7,0.2-1.9,1.5-2.6-0.2
		C655.1,51.4,656.4,50.6,657.9,49.9z"/>
	<path fill-rule="evenodd" clip-rule="evenodd" fill="#F6F5F8" d="M723.9,304.8c1.3-0.9,2.6,1.6,3.9-0.1c0.9,1.5-0.6,2.2-1,3.2
		C725.8,306.9,724.9,305.8,723.9,304.8z"/>
	<path fill-rule="evenodd" clip-rule="evenodd" fill="#F8F8FA" d="M233.6,93.6c-1.1-0.1-0.9,0.8-1.2,1.4c-1.3-1.9-1.9-2.1-5.1-1.7
		c-0.2-1.4,2.5,0.1,1.8-1.8C230.8,91.7,232.3,92.4,233.6,93.6z"/>
	<path fill-rule="evenodd" clip-rule="evenodd" fill="#F2F2F7" d="M150.3,158c0.7,1.2,1,2.2,0.2,3.7c-0.7,1.4-1.4,1.1-2.3,0.9
		C148.9,161,149.6,159.5,150.3,158z"/>
	<path fill-rule="evenodd" clip-rule="evenodd" fill="#F6F6F8" d="M760.2,364.9c-0.3-1.4,0.2-2.8,0.4-4.2c0.1-1.1,1-1.7,2.1-0.9
		C762,361.7,761.4,363.4,760.2,364.9z"/>
	<path fill-rule="evenodd" clip-rule="evenodd" fill="#F6F5F8" d="M857.6,79.3c-0.4,0-0.8,0-1.2,0v0c-0.4-0.2-0.8-0.8-1.1-0.7
		c-3.3,1.3-1.6-1.1-1.6-2.2C855.2,77.2,856.5,78.1,857.6,79.3z"/>
	<path fill-rule="evenodd" clip-rule="evenodd" fill="#F9F9FA" d="M207.1,90.7c-0.1,1.7,2,3.2,0.2,5c-0.4,0.4-0.7,0.3-1.1,0.2
		C206.3,94,206.5,92.3,207.1,90.7z"/>
	<path fill-rule="evenodd" clip-rule="evenodd" fill="#F5F3F7" d="M831.2,230.3c-1.5-2.1-0.8-3.3,1.6-3.8
		C832.7,227.9,832.1,229.2,831.2,230.3z"/>
	<path fill-rule="evenodd" clip-rule="evenodd" fill="#F4F3F7" d="M688.9,209c1.9,0.5,3.3,1.4,2.9,3.7
		C690.6,211.7,689.6,210.5,688.9,209z"/>
	<path fill-rule="evenodd" clip-rule="evenodd" fill="#F5F5F8" d="M865.2,93.2c0-0.4,0.3-1,0.1-1.2c-1.4-2.2,0.1-1.8,1.5-1.6
		C867,91.7,866.4,92.6,865.2,93.2z"/>
	<path fill-rule="evenodd" clip-rule="evenodd" fill="#F8F8FA" d="M226.4,91.4c-0.6-1-2-0.8-2.7-1.7c1.8,0.1,3.4,0.6,5,1.5
		C227.9,92.4,227.1,91.7,226.4,91.4L226.4,91.4z"/>
	<path fill-rule="evenodd" clip-rule="evenodd" fill="#F1F0F5" d="M770.4,206.3c1.5,0,1.9,0.7,1.7,3.3
		C771.6,208.5,771,207.4,770.4,206.3z"/>
	<path fill-rule="evenodd" clip-rule="evenodd" fill="#F6F6F8" d="M708.7,224.3c1.2,0.1,0.7-1.5,1.6-1.6c0.4,0.8,0.7,1.5,1.3,2.8
		C710.4,224.9,709.4,225,708.7,224.3z"/>
	<path fill-rule="evenodd" clip-rule="evenodd" fill="#F5F5F8" d="M866.7,89.8c-0.7-1.1-2.2-0.5-3.2-1.7c0.9-0.2,1.6-0.4,2.3-0.5
		C866.4,88.2,866.8,88.9,866.7,89.8z"/>
	<path fill-rule="evenodd" clip-rule="evenodd" fill="#F5F4F7" d="M433,195.9c1.8-0.9,3,0,3.9,1.5
		C435.5,197.2,434.2,196.7,433,195.9z"/>
	<path fill-rule="evenodd" clip-rule="evenodd" fill="#233D8B" d="M416.2,250.6c-0.4,1.3-0.3,2.9-1.6,3.8
		C414.4,252.9,415,251.6,416.2,250.6z"/>
	<path fill-rule="evenodd" clip-rule="evenodd" fill="#F4F2F5" d="M644.2,60.8c0,0.7,1.4,1,0.6,1.8c-0.6,0.5-1.5,0.3-2.2-0.1
		C642.9,61.7,643.4,61.1,644.2,60.8z"/>
	<path fill-rule="evenodd" clip-rule="evenodd" fill="#F9F9FA" d="M206.1,96.8c0.3,1,1.5,2.2-0.5,2.8
		C205.6,98.7,205.4,97.7,206.1,96.8z"/>
	<path fill-rule="evenodd" clip-rule="evenodd" fill="#F5F4F7" d="M437.4,197.6c1.5-1.4,2,0.1,2.7,0.9
		C439.2,198.3,438.2,198.2,437.4,197.6z"/>
	<path fill-rule="evenodd" clip-rule="evenodd" fill="#F8F8F9" d="M746.9,174c0.3-0.2,0.9-0.7,1-0.7c0.7,0.6,0.8,1.4,0.7,2.3
		C747.9,175.3,747.3,174.7,746.9,174z"/>
	<path fill-rule="evenodd" clip-rule="evenodd" fill="#F4F3F7" d="M691.8,212.8c1.5-0.4,2.1,0.2,1.6,1.7
		C692.7,214.1,692.1,213.5,691.8,212.8z"/>
	<path fill-rule="evenodd" clip-rule="evenodd" fill="#F8F8FA" d="M223.6,89.8c-0.9,0.6-1.9,1.8-2.2-0.5
		C222.2,89.2,223,89.1,223.6,89.8z"/>
	<path fill-rule="evenodd" clip-rule="evenodd" fill="#F2F1F5" d="M606.9,146.6c0.7,0.5,1,1.3,1.1,2.1
		C607.3,148.3,606,148.1,606.9,146.6z"/>
	<path fill-rule="evenodd" clip-rule="evenodd" fill="#C0BED9" d="M631.1,151.1c0.4,0.2,0.8,0.4,1.2,0.6c-0.9,0.5-1.8,0.9-2.6,0
		C630.1,151.5,630.6,151.3,631.1,151.1z"/>
	<path fill-rule="evenodd" clip-rule="evenodd" fill="#F2F1F5" d="M609.2,149.4c1,0,2.1-0.2,2.7,1C610.9,150.4,610,150,609.2,149.4z
		"/>
	<path fill-rule="evenodd" clip-rule="evenodd" fill="#F9F9FA" d="M626.7,90.2c-0.3,0.9,1.1,2.1-0.5,2.8
		C626.1,92.1,625.9,91.1,626.7,90.2z"/>
	<path fill-rule="evenodd" clip-rule="evenodd" fill="#F1F0F5" d="M768.3,201.9c1,0.4,1.2,1.2,1.1,2.2
		C768.9,203.4,768.4,202.8,768.3,201.9z"/>
	<path fill-rule="evenodd" clip-rule="evenodd" fill="#F9F9FA" d="M204.3,106.7c1.2,0.8,0.3,1.2-0.3,1.7
		C204,107.8,203.8,107.2,204.3,106.7z"/>
	<path fill-rule="evenodd" clip-rule="evenodd" fill="#F7F6F9" d="M699.9,148.3c0.8,0,1.9-0.9,2.2,0.7
		C701.4,148.7,700.5,149,699.9,148.3z"/>
	<path fill-rule="evenodd" clip-rule="evenodd" fill="#233D8A" d="M789.7,283.4c-2.1,3.1-4.3,6.3-6.4,9.4c-0.2-0.1-0.4-0.2-0.5-0.3
		c1-2.1,1.9-4.3,2.9-6.4c13.7-25.7,22.1-52.8,21.5-82.2c-0.1-4-0.6-8-1.4-11.9c-0.2-1.2-0.5-1.9-1.9-1.5c-4.2,1.1-8.1-0.3-11.9-1.8
		c-2.4-0.4-4.2-1.7-5.5-3.8c-1.7-1.8-3.4-3.6-5.1-5.4c-0.8-0.3-1.2-0.9-1.4-1.7c-5.9-8.9-9.2-18.5-8.4-29.3c0.3-4,0.2-8,0.4-12
		c0.1-1.4-0.3-2.3-1.7-3c-2.9-1.7-5.7-3.6-8.5-5.4c-2.2-0.9-4.5-1.8-6.1-3.7c-8.4-4.7-17.7-6.5-27.2-7.2c-9.2-0.6-18.1,1.2-27,3.1
		c-3.1,0.6-3.1,0.6-2.4-2.5c1.5-6.4,4.1-12.7,3.6-19.5c-0.1-1.9-0.5-3.8-0.4-5.7c0.1-2.5-1.1-2.5-3-2.1c-2.5,0.6-5,1-7.5,1.5
		c0.2-1.5,1.5-2,2.1-2.9c0.9-0.7,1.2-2.2,2.8-2c0.5-0.4,1.1-0.8,1.6-1.2c1.6-1.2,3.4-2.1,5.5-2.2c10-3.1,20.2-4.6,30.6-4.8
		c18.1-0.2,34.2,5.8,49.1,15.7c0.4,0.3,0.8,0.5,1.1,0.7c2.4,0.9,3.9,2.6,4.9,4.9c-0.4,1.8-1.4,0.5-1.9,0.2
		c-4.4-2.7-8.8-5.5-13.2-8.2c-1-0.6-1.8-1.5-3.4-1.4c2.8,4.4,5.1,8.9,6.6,13.7c2.8,9.4,2.2,18.9,1.4,28.4c-0.7,8.3-2.2,16.6-0.3,25
		c1.3,5.5,2.9,10.9,6.5,15.4c2.3,1.4,3.6,3.8,5.7,5.4c2.3,1.7,4.6,3.2,7.3,4c1.6,0.4,2.3,0.4,2.5-1.7c0.3-3.3-0.5-6.6,0.6-9.8
		c2.2-11.5,7.6-22.1,10.5-33.5c1.7-6.5,2.1-13.1,1.1-19.8c1.6,0.5,2.1,2,3.2,2.9c1.7,0.9,1.4,2.8,2.1,4.2c1.1,2.3,1.5,4.9,2.1,7.5
		c1.5,4.7,4.3,8.8,6,13.4c5.9,15.7,6.3,31.8,3.6,48.1c-2.5,14.9-7.5,29-13.6,42.7c-0.3,0.7-0.6,1.5-0.9,2.3
		c-0.5,2.4-1.1,4.9-3.2,6.6c-0.3,0.5-0.5,1.1-0.8,1.6c0.2,0.8-0.4,1.2-0.9,1.7c-1.1,1-0.9,2.7-1.9,3.7c0,0.7-0.4,1.2-0.9,1.7
		C801.7,264.1,795.7,273.7,789.7,283.4z"/>
	<path fill-rule="evenodd" clip-rule="evenodd" fill="#253E8D" d="M667.7,98.5c2-2.5,4.4-4.3,7.8-4.4c4.2-0.1,6.7,3.1,5.5,7.2
		c-1.6,5.4-7.9,7.8-13.3,5c0.4-0.8,1.2-1,2-1.3c1.1-0.4,1.6-1.1,1.5-2.2c-0.1-1.1-0.7-1.8-1.8-2.1
		C668.2,100.6,666.7,100.5,667.7,98.5z"/>
	<path fill-rule="evenodd" clip-rule="evenodd" fill="#F9F9FA" d="M801.3,171.3c-0.1,3.8-0.6,7.6,0.3,11.4c0.4,1.7-0.5,1.5-1.6,1.3
		c-6.5-1.3-11.3-4.9-14.8-10.5c1,0.1,1.5-1,2.7-1c1.9,0.1,2.8,1.1,2.2,2.5c-1.1,2.6,0.6,1.9,1.8,1.8c1.4-0.1,2.3,0.3,2.6,1.8
		c0.5,2.3,1.9,3.4,4.5,2.7c1.9-0.5,1.8-2.7,1.4-4c-0.4-1.3,1-3-0.7-4C800.9,173.3,800.2,171.5,801.3,171.3z"/>
	<path fill-rule="evenodd" clip-rule="evenodd" fill="#F8F7F9" d="M663.8,127.6c-2.3,0.6-3.5,2.6-5.3,3.9c-1,0.7-1.9,1.3-2.9,2
		c-0.2-0.4-0.5-0.8-0.5-1.3c0-1.1-1.2-2.4,0.4-3.1c1.1-0.6,2.4-0.7,3.3,0.5c0.2-0.3,0.3-0.4,0.3-0.6c0-1.5-0.6-4,0.3-4.2
		c2.4-0.5,4.9-0.9,7.4-0.3c0.6,0.1,0.5,0.6,0.5,1.1c0.1,0.8-0.4,1-0.9,1.5C665.7,127.9,664.5,126.5,663.8,127.6z"/>
	<path fill-rule="evenodd" clip-rule="evenodd" fill="#F9F8FA" d="M773.8,54.1c3.9,2.2,7.6,4.8,10.9,7.8c-3.6,1.7-5.8,0.7-7.3-3.3
		c-0.8-2.2-2.1,0-3.1-0.2C774.9,56.9,774.2,55.5,773.8,54.1z"/>
	<path fill-rule="evenodd" clip-rule="evenodd" fill="#2D4594" d="M666.9,116.3c2-1.6,3.8-3.1,6.4-2c2.5,1.1,3,3.3,3.1,6.6
		C674,116.9,669.8,118.5,666.9,116.3z"/>
	<path fill-rule="evenodd" clip-rule="evenodd" fill="#F8F8FA" d="M667.7,98.5c0,0.7-0.3,1.7,0.8,1.5c2.4-0.4,3.5,0.8,3.6,2.9
		c0.1,2.3-1.6,3-3.6,3.2c-0.3,0-0.5,0.1-0.8,0.2c0.3-1.2,0-2.4,0.5-3.7c0.4-1-1.5-0.9-1.3-2.3C667.1,99.5,666.9,98.9,667.7,98.5z"/>
	<path fill-rule="evenodd" clip-rule="evenodd" fill="#F8F8FA" d="M789.6,100.4c-1.6-1.6-3.3-3.3-4.9-4.9c0.3-1.1,0.5-2.3,1-4.3
		c-0.2,3,1.7,2.4,2.9,2.8c0.6,0.2,1.8-0.3,1.3,0.9C789.2,96.7,790.7,98.6,789.6,100.4z"/>
	<path fill-rule="evenodd" clip-rule="evenodd" fill="#F8F8FA" d="M820.2,132.6c-2.2-3.6-2.3-8-4.2-11.7c0.9-0.7,1.4,0.4,2.1,0.6v0
		c-0.4,1.6-0.1,2.7,1.9,2.4c0.7-0.1,0.5,0.3,0.5,0.6C820.8,127.2,820.6,129.9,820.2,132.6z"/>
	<path fill-rule="evenodd" clip-rule="evenodd" fill="#F7F6F9" d="M809.5,87.5c1.5,1.7,2.7,3.5,3.7,5.5c-0.6-0.1-1.3-0.3-1.8-0.2
		c-1.3,0.3-2.8,0.5-3.3-0.8C807.5,90.4,807.9,88.7,809.5,87.5z"/>
	<path fill-rule="evenodd" clip-rule="evenodd" fill="#F7F6F9" d="M826.8,114.4c0.1-2-1-3.7-1.5-5.5c0.7-0.2,1.3-1.7,1.8-1
		c0.7,0.9,2.1,1.8,1.8,3c-0.2,0.9,0.6,1.8-0.2,2.7c-0.3,0.3,1,1.1-0.2,1.7C827.6,115.6,827.4,114.7,826.8,114.4z"/>
	<path fill-rule="evenodd" clip-rule="evenodd" fill="#F8F8F9" d="M786.4,184.9c1.8,1.3,3.7,2.5,5.5,3.8c-1.6,2.3-3.8,0.6-5.7,1
		c-0.1,0-0.3-0.4-0.3-0.6c0.1-0.5,0.5-0.3,0.8-0.3c0.5,0,1-0.2,1-0.7c0-0.9-0.7-0.3-1.1-0.5C785,186.8,786.1,185.8,786.4,184.9z"/>
	<path fill-rule="evenodd" clip-rule="evenodd" fill="#F7F7F9" d="M812.2,245.6c0.9-2.3,1.9-4.5,3.2-6.6c0.6,1,0.8,2,0.1,3.1
		c-0.4,0.7-0.4,1.3-0.1,2c0.3,0.7,1.3,1.5,0.4,2.1c-0.8,0.6-1.8,0.3-2.7-0.3C812.9,245.8,812.5,245.8,812.2,245.6z"/>
	<path fill-rule="evenodd" clip-rule="evenodd" fill="#F4F4F7" d="M755.7,124.3c2.3,0.9,4.3,2.2,6.1,3.7c-1.9-0.6-4.3,0.9-5.9-1.3
		C755.4,126,755.1,125.2,755.7,124.3z"/>
	<path fill-rule="evenodd" clip-rule="evenodd" fill="#F6F5F8" d="M824.6,106.8c-1.1-1.7-2-3.6-2.7-5.5
		C825.5,101.4,825.5,101.4,824.6,106.8z"/>
	<path fill-rule="evenodd" clip-rule="evenodd" fill="#FAFAFB" d="M797.8,68.6c-1.3-1-2.4-2.1-3.3-3.4c1.3-0.8,2.4-0.4,3.6,0.6
		C799.5,67,797.4,67.6,797.8,68.6z"/>
	<path fill-rule="evenodd" clip-rule="evenodd" fill="#F3F3F7" d="M813.7,93.6c1,1.1,1.8,2.4,2.3,3.7c-1.2,0.3-2.3,0.5-3.2-0.6
		C811.5,95.3,814.2,94.9,813.7,93.6z"/>
	<path fill-rule="evenodd" clip-rule="evenodd" fill="#F5F4F7" d="M703.8,83.8c-1.8,0.8-3.5,1.9-5.5,2.2
		C699.8,84.4,700.8,81.5,703.8,83.8z"/>
	<path fill-rule="evenodd" clip-rule="evenodd" fill="#F5F4F7" d="M696.7,87.1c-0.9,0.7-1.8,1.3-2.8,2c0.2-1,0.4-2,0.7-2.8
		c0.3-0.7,1.1-1.2,1.8-1C697.6,85.6,696.5,86.5,696.7,87.1z"/>
	<path fill-rule="evenodd" clip-rule="evenodd" fill="#F8F8FA" d="M797.4,73.2c1.2,1,2.5,2,3.1,3.5
		C797.1,76.4,796.5,75.8,797.4,73.2z"/>
	<path fill-rule="evenodd" clip-rule="evenodd" fill="#F6F5F8" d="M821.9,101.3c-1.2-1.5-2.1-3.2-2.8-4.9c1.3,1.2,3.5,1.6,3.5,3.9
		C822.5,100.6,822.1,100.9,821.9,101.3z"/>
	<path fill-rule="evenodd" clip-rule="evenodd" fill="#F8F8FA" d="M801.7,77.9c0.8,0.2,1.1,0.9,1.5,1.5c-1,1.1-2,1.6-3.2,0.3
		C800.3,78.9,801.7,79,801.7,77.9z"/>
	<path fill-rule="evenodd" clip-rule="evenodd" fill="#F8F8FA" d="M803.9,80.5c1,0.4,1.6,1.3,2,2.2c-0.6,0.2-0.9,1.3-1.8,0.4
		C803.1,82.3,803.3,81.4,803.9,80.5z"/>
	<path fill-rule="evenodd" clip-rule="evenodd" fill="#F2F2F6" d="M780,177.8c0.6,0.4,1.1,1,1.4,1.7c-0.7,0.1-1.4,2.1-2.1,0v0
		C780.2,179.2,779.1,178.1,780,177.8z"/>
	<path fill-rule="evenodd" clip-rule="evenodd" fill="#F8F8FA" d="M818.1,121.5c1.1-0.5,1.1-0.5,2.4,1.1
		C819.2,123.3,818.8,121.9,818.1,121.5L818.1,121.5z"/>
	<path fill-rule="evenodd" clip-rule="evenodd" fill="#F2F1F5" d="M610.2,147.2c0,0.2,0.9,0.8,0.2,1.4c-0.2,0.1-1-0.1-1.2-0.4
		C608.4,147.2,610.3,147.4,610.2,147.2z"/>
	<path fill-rule="evenodd" clip-rule="evenodd" fill="#F8F8FA" d="M728.4,40.6c1-0.6,2-0.9,3.2,0.2
		C730.3,40.8,729.4,40.7,728.4,40.6z"/>
	<path fill-rule="evenodd" clip-rule="evenodd" fill="#FAFAFB" d="M798.8,64.4c-0.2,0.1-0.4,0.5-0.7,0.5c-0.5,0-0.7-0.5-0.6-1
		c0.1-0.4,0.4-0.6,0.8-0.5C798.7,63.5,798.9,63.8,798.8,64.4z"/>
	<path fill-rule="evenodd" clip-rule="evenodd" fill="#F2F2F6" d="M779.3,179.5c-2.1,0.6-0.6-1.2-1.2-1.7
		C779,178,778.7,179,779.3,179.5L779.3,179.5z"/>
	<path fill-rule="evenodd" clip-rule="evenodd" fill="#F2F1F5" d="M609.1,146.4c-0.3-0.3-0.5-0.5-0.6-0.7c-0.2-0.5-0.1-0.9,0.5-1
		c0.2,0,0.6,0.2,0.6,0.3C609.4,145.4,609.3,145.8,609.1,146.4z"/>
	<path fill-rule="evenodd" clip-rule="evenodd" fill="#F6F5F8" d="M856.4,79.4c0.7,2.5-1,0.9-1.7,0.8
		C855.2,79.9,855.8,79.7,856.4,79.4L856.4,79.4z"/>
	<path fill-rule="evenodd" clip-rule="evenodd" fill="#F8F7F9" d="M809.3,253.3c1.1,0.1,1.4,0.8,1.4,2
		C809.6,255,809.9,253.8,809.3,253.3L809.3,253.3z"/>
	<path fill-rule="evenodd" clip-rule="evenodd" fill="#F8F7F9" d="M810.5,248.9c0.1-0.7,0.4-1.2,0.9-1.7
		C812.7,248.6,811.3,248.6,810.5,248.9z"/>
	<path fill-rule="evenodd" clip-rule="evenodd" fill="#F8F7F9" d="M807.7,254.4c0-0.7,0.4-1.2,0.9-1.7c0.3,0.2,0.5,0.4,0.8,0.6l0,0
		C808.8,253.6,808.6,254.5,807.7,254.4z"/>
	<path fill-rule="evenodd" clip-rule="evenodd" fill="#F8F7F9" d="M811.5,250.4c0.1,0.2,0.2,0.4,0.2,0.6c-0.1,0.3-0.4,0.6-0.8,0.5
		c-0.1,0-0.2-0.3-0.1-0.4C810.9,250.8,811,250.3,811.5,250.4z"/>
	<path fill-rule="evenodd" clip-rule="evenodd" fill="#F7F6F9" d="M163.1,72c0.8,0,1.5-0.1,2.1-0.1c0.2,0.6-0.2,0.7-0.5,0.8
		C164.1,72.9,163.6,72.7,163.1,72z"/>
	<path fill-rule="evenodd" clip-rule="evenodd" fill="#233D8A" d="M359.8,110.3c2.5-0.3,4.9,0,7.4,0.4c6.1,1,9.2,5.1,9.5,12.1
		c0.2,5.1-1,10.1-1.6,15.2c-1.2,8.9-2.2,17.9-5,26.5c-1.9,5.9-4.8,10.7-11.5,11.9c-6.3,1.2-11.7-0.6-16.1-5.3
		c-3-3.3-2.9-7.4-2.3-11.4c2.2-14.3,3.4-28.7,6.6-42.9c1.3-6-0.1-4.9,6.2-5.8C355.3,110.7,357.6,110.5,359.8,110.3z"/>
	<path fill-rule="evenodd" clip-rule="evenodd" fill="#F7F7F9" d="M322.7,247.9c-1,0.6-1.6,0.6-2.3,0.3
		C321,247.6,321.7,247.6,322.7,247.9z"/>
	<path fill-rule="evenodd" clip-rule="evenodd" fill="#233D8A" d="M276.1,334.7c0.4-5.5,2.3-12.7,3.1-20c0.5-4.2,1-8.3,1.9-12.4
		c2.4-12.1,7.7-16.7,20-17.7c2.5-0.2,5.1-0.2,7.6,0c6.4,0.5,10.2,4.7,10.6,11.1c0.3,5.2-0.8,10.1-1.6,15.2
		c-1.1,7.3-1.9,14.6-3.3,21.8c-2.7,14-9.9,18.1-23.4,17.8c-1.5,0-2.9-0.2-4.3-0.5C278.6,348.6,275.6,344.8,276.1,334.7z"/>
	<path fill-rule="evenodd" clip-rule="evenodd" fill="#233D8B" d="M464.8,134.9c-2.7-0.2-5.4-0.7-8.1-1.2c-1.6-0.3-2-1-1.9-2.6
		c0.3-3.9,1.1-7.7,2.8-11.3c3.2-6.9,10.7-10.4,18.1-8.4c4.1,1.1,6.2,3.8,6.5,8.3c0.5,7.5-4.3,13.5-12,14.8
		C468.5,134.8,466.6,134.8,464.8,134.9z"/>
	<path fill-rule="evenodd" clip-rule="evenodd" fill="#F9F8FA" d="M511.1,131.4c-0.1-0.9-1.3-1.9-0.3-2.5c1-0.6,1.6-0.2,0.8,1.1
		C511.3,130.3,511.2,130.9,511.1,131.4z"/>
	<path fill-rule="evenodd" clip-rule="evenodd" fill="#F8F8FA" d="M226.4,91.4c-0.5,3.4-2.7,1.5-4.5,1.6c0.4-0.9,1.5-0.3,1.7-1.1
		C224.5,91.8,225.4,91.6,226.4,91.4L226.4,91.4z"/>
	<path fill-rule="evenodd" clip-rule="evenodd" fill="#F8F8FA" d="M221.9,91.6c0.7-0.2,1.4-0.5,2.4-0.8
		C223.4,91.8,223.4,91.8,221.9,91.6z"/>
	<path fill-rule="evenodd" clip-rule="evenodd" fill="#FAFAFB" d="M198.5,181.1c0-0.7,0-1.4,0-2.3
		C199.4,180.7,199.4,180.7,198.5,181.1L198.5,181.1z"/>
	<path fill-rule="evenodd" clip-rule="evenodd" fill="#233D8A" d="M383.2,362.1c0.3,0,0.7,0,1,0c0,0.2,0,0.5-0.1,0.7
		c-0.4,0.5-0.9,0.5-1.3-0.1C382.9,362.4,383,362.2,383.2,362.1z"/>
	<path fill-rule="evenodd" clip-rule="evenodd" fill="#233D8A" d="M385.4,363.5c-0.2,0.2-0.5,0.5-0.8,0.6c-0.3,0.1-0.5-0.1-0.3-0.4
		c0.2-0.3,0.5-0.4,0.8-0.7C385.2,363.2,385.2,363.3,385.4,363.5z"/>
	<path fill-rule="evenodd" clip-rule="evenodd" fill="#FEFEFE" d="M793.1,286.3c-1.1,0.2-1.3,0.2-1.6,0.2c-0.4-0.1-0.8-0.2-1.2-0.3
		C791.1,285.1,791.7,285.9,793.1,286.3z"/>
	<path fill-rule="evenodd" clip-rule="evenodd" fill="#FEFEFE" d="M794,60.4c-2,0-3-0.9-3.3-2.6C791.4,57.7,792.4,58.5,794,60.4z"/>
</g>
</svg>
