<?xml version="1.0" encoding="UTF-8"?>
<svg id="Logotipo" xmlns="http://www.w3.org/2000/svg" viewBox="0 0 704.02 155.91">
  <defs>
    
  </defs>
  <g>
    <path class="cls-2" d="M127,145.17l2.68-3.82c1.61,1.69,4.12,3.13,7.29,3.13,2.72,0,3.99-1.2,3.99-2.54,0-3.99-13.2-1.2-13.2-9.83,0-3.82,3.3-6.98,8.7-6.98,3.64,0,6.67,1.1,8.94,3.2l-2.72,3.64c-1.86-1.72-4.33-2.51-6.67-2.51-2.06,0-3.23.89-3.23,2.27,0,3.61,13.17,1.17,13.17,9.73,0,4.19-3.02,7.36-9.18,7.36-4.43,0-7.6-1.48-9.76-3.64Z"></path>
    <path class="cls-2" d="M161.59,139.22v-13.75h4.95v13.61c0,3.2,1.86,5.4,5.4,5.4s5.36-2.2,5.36-5.4v-13.61h4.98v13.75c0,5.67-3.37,9.59-10.35,9.59s-10.35-3.92-10.35-9.59Z"></path>
    <path class="cls-2" d="M197.93,148.4v-22.93h10.73c4.99,0,7.7,3.37,7.7,7.39s-2.75,7.36-7.7,7.36h-5.84v8.18h-4.88ZM211.37,132.86c0-1.92-1.48-3.09-3.4-3.09h-5.16v6.15h5.16c1.92,0,3.4-1.17,3.4-3.06Z"></path>
    <path class="cls-2" d="M232,148.4v-22.93h16.23v4.3h-11.34v4.81h11.1v4.3h-11.1v5.22h11.34v4.3h-16.23Z"></path>
    <path class="cls-2" d="M276.84,148.4l-4.5-8.15h-3.57v8.15h-4.88v-22.93h10.73c4.78,0,7.73,3.13,7.73,7.39,0,4.02-2.58,6.22-5.05,6.81l5.19,8.73h-5.64ZM277.32,132.83c0-1.89-1.48-3.06-3.4-3.06h-5.16v6.19h5.16c1.92,0,3.4-1.17,3.4-3.13Z"></path>
    <path class="cls-2" d="M318.06,148.4v-16.53l-6.46,16.53h-2.13l-6.46-16.53v16.53h-4.88v-22.93h6.84l5.57,14.33,5.57-14.33h6.87v22.93h-4.92Z"></path>
    <path class="cls-2" d="M338.62,148.4v-22.93h16.23v4.3h-11.34v4.81h11.1v4.3h-11.1v5.22h11.34v4.3h-16.23Z"></path>
    <path class="cls-2" d="M383.45,148.4l-4.5-8.15h-3.57v8.15h-4.88v-22.93h10.73c4.78,0,7.74,3.13,7.74,7.39,0,4.02-2.58,6.22-5.05,6.81l5.19,8.73h-5.64ZM383.93,132.83c0-1.89-1.48-3.06-3.4-3.06h-5.15v6.19h5.15c1.93,0,3.4-1.17,3.4-3.13Z"></path>
    <path class="cls-2" d="M404.74,136.95c0-7.08,5.33-11.86,12.24-11.86,5.02,0,7.94,2.72,9.56,5.6l-4.2,2.06c-.96-1.86-3.02-3.33-5.36-3.33-4.19,0-7.22,3.2-7.22,7.53s3.03,7.53,7.22,7.53c2.34,0,4.4-1.48,5.36-3.33l4.2,2.03c-1.62,2.85-4.54,5.64-9.56,5.64-6.91,0-12.24-4.81-12.24-11.86Z"></path>
    <path class="cls-2" d="M460.44,148.4l-1.45-3.88h-9.83l-1.44,3.88h-5.54l8.83-22.93h6.12l8.83,22.93h-5.53ZM454.08,130.35l-3.58,9.87h7.15l-3.57-9.87Z"></path>
    <path class="cls-2" d="M481.62,148.4v-22.93h9.04c7.19,0,12.17,4.57,12.17,11.45s-4.98,11.48-12.13,11.48h-9.08ZM497.84,136.92c0-4.02-2.48-7.15-7.15-7.15h-4.19v14.33h4.16c4.54,0,7.19-3.27,7.19-7.19Z"></path>
    <path class="cls-2" d="M518.47,136.95c0-6.91,5.05-11.86,12-11.86s11.96,4.95,11.96,11.86-5.05,11.86-11.96,11.86-12-4.95-12-11.86ZM537.41,136.95c0-4.3-2.72-7.53-6.94-7.53s-6.98,3.23-6.98,7.53,2.72,7.53,6.98,7.53,6.94-3.27,6.94-7.53Z"></path>
    <path class="cls-2" d="M558.08,145.17l2.68-3.82c1.62,1.69,4.13,3.13,7.29,3.13,2.72,0,3.99-1.2,3.99-2.54,0-3.99-13.2-1.2-13.2-9.83,0-3.82,3.3-6.98,8.7-6.98,3.65,0,6.67,1.1,8.94,3.2l-2.71,3.64c-1.86-1.72-4.33-2.51-6.67-2.51-2.06,0-3.23.89-3.23,2.27,0,3.61,13.17,1.17,13.17,9.73,0,4.19-3.03,7.36-9.18,7.36-4.43,0-7.6-1.48-9.76-3.64Z"></path>
  </g>
  <g>
    <path class="cls-1" d="M155.05,7.09c-24.81,0-35.95,20.03-35.95,47.23s11.14,47.23,35.95,47.23,35.95-20.03,35.95-47.23-11.14-47.23-35.95-47.23ZM155.05,79.39c-7.09,0-10.63-8.69-10.63-25.07s3.55-25.07,10.63-25.07,10.63,8.69,10.63,25.07-3.54,25.07-10.63,25.07Z"></path>
    <polygon class="cls-1" points="222.3 8.5 196.98 8.5 196.98 100.15 244.32 100.15 244.32 79.14 222.3 79.14 222.3 8.5"></polygon>
    <rect class="cls-1" x="253.99" y="8.5" width="25.32" height="91.65"></rect>
    <polygon class="cls-1" points="354.7 100.15 404.82 100.15 404.82 79.14 379.5 79.14 379.5 64.58 401.78 64.58 401.78 44.07 379.5 44.07 379.5 29.52 404.82 29.52 404.82 8.5 354.7 8.5 354.7 100.15"></polygon>
    <polygon class="cls-1" points="493.53 29.52 509.1 29.52 509.1 100.15 534.42 100.15 534.42 29.52 550.07 29.52 550.07 8.5 493.53 8.5 493.53 29.52"></polygon>
    <polygon class="cls-1" points="559.66 100.15 609.79 100.15 609.79 79.14 584.47 79.14 584.47 64.58 606.75 64.58 606.75 44.07 584.47 44.07 584.47 29.52 609.79 29.52 609.79 8.5 559.66 8.5 559.66 100.15"></polygon>
    <path class="cls-1" d="M462.47,8.5s.14,47.04.21,49.23l-27.81-49.23h-20.38v91.65h21.39s-.14-48.68-.21-50.79l28.57,50.79h19.62V8.5h-21.39Z"></path>
    <polygon class="cls-1" points="106.19 8.5 99.87 8.5 80.7 8.5 79.02 8.5 64.29 57.14 49.56 8.5 47.87 8.5 28.71 8.5 22.39 8.5 11.76 100.15 37.24 100.15 42.57 54.26 53.86 91.56 56.46 100.15 72.11 100.15 74.71 91.56 86.01 54.26 91.33 100.15 116.82 100.15 106.19 8.5"></polygon>
    <path class="cls-1" d="M683.38,74.1c-3.35-9.8-10.51-12.79-16.2-13.51,5.14-.83,11.54-3.2,15.61-9.48,2.18-3.36,3.68-7.86,3.95-13.84.03-.65.06-1.3.06-1.98,0-.62-.03-1.21-.06-1.8-.72-15.58-10.64-21.52-19.06-23.74-.17-.05-.35-.1-.52-.14-.06-.02-.12-.03-.18-.05-2.17-.53-4.21-.81-5.94-.96-.88-.06-1.78-.1-2.7-.1h-38.88v91.65h24.81v-30.23h4.92c4.81,0,8.46,3.19,9.86,7.48l7.77,22.75h25.46l-8.89-26.05ZM651.1,52.37h-6.84v-23.8h6.08c8.36,0,11.65,4.08,11.65,12.29,0,6.69-3.29,11.51-10.89,11.51Z"></path>
    <path class="cls-1" d="M314.3,54.33c0-13.8,7.1-33.63,24.76-21.49l5.97-19.71c-5.29-3.86-11.95-6.03-20.09-6.03-24.81,0-35.95,20.03-35.95,47.23s11.14,47.23,35.95,47.23c8.14,0,14.81-2.17,20.09-6.03l-5.97-19.71c-18.32,10.88-24.76-7.69-24.76-21.49Z"></path>
  </g>
</svg>